<?xml version="1.0" encoding="UTF-8"?>
<svg version="1.1" viewBox="0 0 1600 1600" width="1280" height="1280" xmlns="http://www.w3.org/2000/svg">
<path transform="translate(0)" d="m0 0h1600v1600h-1600z" fill="#FAFCFC"/>
<path transform="translate(928,255)" d="m0 0 9 1 14 5 14 9 9 9 7 11 5 11 3 11 1 8v12l-3 17-6 15-7 11-9 10-10 9-5 3h-2v213l8-6 16-8 17-5 15-2h19l20 3 18 6 14 7 12 9 8 8 9 14 4 8v3l-8 7-9 9-9 11-13 16-14 20-14 24-1 2h26l71 2 24 1 5 5 3 23 10 90v9l14-7 4-3 21-1h27l3 4-1 7-4 4-49 19-22 9h-19l-64-3-2 39-3 40v14l5 6 8 3h21l52-7 12-1h42l25 3 27 6 9 3-5 28-12 58-10 42-7 28-4 23-3 32-3 40-4 23-7 25-8 22-12 25-19-2-6-1-2-97-3-105-4-105-10 27-20 48-8 22-7 26-5 30-4 41-4 19-6 18-10 21-10 16-10 13-12 14-10 10-11-2-13-4 1-8 8-33 10-45 11-56 4-23 1-9-11 4-18 4-16 2h-32v-282l-36-1-6 3-4-1v247l-3 11-6 10-7 8-7 5-12 5-16 2-33 2-20 2-199 15-22 1-2 1-266 20h-23l-10-3-9-5-8-7-6-10-3-8v-813l4-13 7-10 8-7 10-5 13-3h17l424 13-1-2v-12l4-8 7-6 4-2h6l3-18-6-4-4-7-1-4v-7l4-10 7-6 4-2h12l-1 2-8 4-5 7-2 7 1 10 4 7 6 4-2 11-2 7-10 3-6 5-4 9v10l1 2 116 4 14 3 9 5 9 8 7 12 2 8 6-4 9-10 8-13 5-12 3-13v-24l-4-15-7-14-8-10-9-8-16-8-6-2z" fill="#E1ABEB"/>
<path transform="translate(928,255)" d="m0 0 9 1 14 5 14 9 9 9 7 11 5 11 3 11 1 8v12l-3 17-6 15-7 11-9 10-10 9-5 3h-2v213l8-6 16-8 17-5 15-2h19l20 3 18 6 14 7 12 9 8 8 9 14 4 8v3l-8 7-9 9-9 11-13 16-14 20-14 24-1 2h26l71 2 24 1 5 5 3 23 10 90v9l14-7 4-3 21-1h27l3 4-1 7-4 4-49 19-22 9h-19l-64-3-2 39-3 40v14l5 6 8 3h21l52-7 12-1h42l25 3 27 6 9 3-5 28-12 58-10 42-7 28-4 23-3 32-3 40-4 23-7 25-8 22-12 25-19-2-6-1-2-97-3-105-4-105-10 27-20 48-8 22-7 26-5 30-4 41-4 19-6 18-10 21-10 16-10 13-12 14-10 10-11-2-13-4 1-8 8-33 10-45 11-56 4-23 1-9-11 4-18 4-16 2h-32v-282l-36-1-6 3-4-1v247l-3 11-6 10-7 8-7 5-12 5-16 2-33 2-20 2-199 15-22 1h-12l1-13-3-1 2-1 1-36-3-1v-2h-5v-1l28-1 26-3 25-6 23-8 19-9 20-12 16-12 13-11 17-17 11-14 10-14 10-17 11-23 9-27 5-24 2-14v-37l-3-23-6-24-6-16-11-23-14-21-9-11-12-13-10-9-16-12-15-9-23-11-21-7-16-4-1-2v-47l12-1 52-1 132-1-1-28h-196l1-3 1-18 80-1h115v-29h-196v-17l-1-4h197v-28l-123-1-61-1-13-1 1-3 1-15 1-2h129l65 1v-28l-74-1-113-2-10-1 1-3 1-49 2-3 12-1-372-8-33-1v-39l4-13 7-10 8-7 10-5 13-3h17l424 13-1-2v-12l4-8 7-6 4-2h6l3-18-6-4-4-7-1-4v-7l4-10 7-6 4-2h12l-1 2-8 4-5 7-2 7 1 10 4 7 6 4-2 11-2 7-10 3-6 5-4 9v10l1 2 116 4 14 3 9 5 9 8 7 12 2 8 6-4 9-10 8-13 5-12 3-13v-24l-4-15-7-14-8-10-9-8-16-8-6-2z" fill="#C09FF5"/>
<path transform="translate(627,719)" d="m0 0h40l20 3 23 6 20 8 19 10 17 12 14 12 12 12 11 14 10 15 9 17 8 21 5 16 3 15 2 19v27l-2 18-4 20-5 16-3 10-7 15-10 19-10 15-10 13-11 12-17 17-17 13-19 12-27 13-25 8-25 5-9 1h-38l-21-3-19-5-19-7-16-8-14-8-13-10-14-12-8-8-9-11-10-14-9-16-8-17-7-21-5-25-1-8v-40l4-26 7-25 10-24 11-20 11-16 9-11 9-10 16-16 14-11 18-12 25-13 18-7 22-6z" fill="#FC829B"/>
<path transform="translate(919,733)" d="m0 0h34l41 1 143 4 24 1 5 5 3 23 10 90v9l14-7 4-3 21-1h27l3 4-1 7-4 4-49 19-22 9h-19l-64-3-2 39-3 40v14l5 6 8 3h21l52-7 12-1h42l25 3 27 6 9 3-5 28-12 58-10 42-7 28-4 23-3 32-3 40-4 23-7 25-8 22-12 25-19-2-6-1-2-97-3-105-4-105-10 27-20 48-8 22-7 26-5 30-4 41-4 19-6 18-10 21-10 16-10 13-12 14-10 10-11-2-13-4 1-8 8-33 10-45 11-56 4-23 1-9-11 4-18 4-16 2h-32v-282l-28-1-7-1 3-3-1-7-8-7-9-4-13-2-7-39-13-76v-11l6-5z" fill="#3E4077"/>
<path transform="translate(1183,555)" d="m0 0 13 1 10 4 6 4 4 6 1 6-3 12-3 7v7l-5 5h-2l4 16 4 6 13 5 35 6 31 7 15 5 16 8 14 9 11 9 15 15 11 15 9 16 7 16 5 18 2 14v21l-3 18-5 17-7 16-8 12-9 10-9 8-14 8-13 5-15 3v3l9 24 10 33 4 18 1 6v17l-4 11-7 6-2 1h-14l-31-9-25-6-20-3-10-1h-42l-36 4-28 4h-21l-8-3-6-7v-14l3-40 2-34 1-5h22l42 2h19l27-11 44-17 4-5-1-7-1-1h-27l-21 1-11 7-4 2h-3l-13-117-2-7-3-2-121-4 2-6 12-20 12-17 11-14 11-13 9-10 9-9 13-9 11-4 10-2 24-1h11l4-5 1-2h-8l-5-3-3-6v-12l3-1h9l7 2h8l6-4 3-5v-10l-18-6h-7l-6 3-2 3h-2l-2-5v-11l4-8 6-4z" fill="#FDB646"/>
<path transform="translate(613,420)" d="m0 0h42l46 1 4 2h-16l-1 3-1 49-1 2 9 1 170 3 17 1v28h-65l-129-1-1 17-1 2 12 1 61 1 118 1 5 1v28l-196 1 1 3v15l-1 2h196v29l-115 1h-80v18l-1 2h196v29l-21 1-111 1-64 1 1 2v46l26 7 20 8 23 12 14 10 11 9 12 11 11 12 11 15 11 18 9 19 6 16 6 24 3 23v37l-5 30-7 24-8 20-13 25-11 16-11 14-11 12-14 14-14 11-14 10-23 13-21 9-22 7-24 5-20 2h-25l-25-3-21-5-20-7-23-11-21-14-13-11-12-11-12-14-12-17-10-18-9-21-6-20-4-19-2-18v-30l3-25 6-25 7-20 12-25 9-15 10-14 8-10 9-10 16-16 14-11 14-10 21-12 20-9 21-7 17-4h5l2-5 1-123-5-1-1 1h-7v-2h-7l-4-2 28-1 3-2v-21l-3-2-7-1 2-4 1-126zm14 299-25 4-22 6-20 8-25 13-16 11-11 9-10 9-16 16-11 14-12 18-10 18-8 19-6 18-5 23-2 15v40l4 25 7 24 8 18 9 17 12 17 13 15 8 8 11 9 15 11 22 12 21 8 18 5 16 3 9 1h38l26-4 21-6 19-7 22-11 21-14 16-13 22-22 13-17 10-15 13-25 5-13 6-18 3-12 2-12 2-18v-27l-3-24-4-18-9-24-8-17-12-19-11-13-7-8-10-10-14-11-15-10-19-10-21-8-25-6-15-2z" fill="#D0A5EF"/>
<path transform="translate(928,255)" d="m0 0 9 1 14 5 14 9 9 9 7 11 5 11 3 11 1 8v12l-3 17-6 15-7 11-9 10-10 9-5 3h-2v30l-61-1-558-12-33-1v-39l4-13 7-10 8-7 10-5 13-3h17l424 13-1-2v-12l4-8 7-6 4-2h6l3-18-6-4-4-7-1-4v-7l4-10 7-6 4-2h12l-1 2-8 4-5 7-2 7 1 10 4 7 6 4-2 11-2 7-10 3-6 5-4 9v10l1 2 116 4 14 3 9 5 9 8 7 12 2 8 6-4 9-10 8-13 5-12 3-13v-24l-4-15-7-14-8-10-9-8-16-8-6-2z" fill="#3E4178"/>
<path transform="translate(1183,555)" d="m0 0 13 1 10 4 6 4 4 6 1 6-3 12-3 7v7l-5 5h-2l4 16 4 6 13 5 35 6 31 7 15 5 16 8 14 9 11 9 15 15 11 15 9 16 7 16 5 18 2 14v21l-2 4-1-2-20-5-17-3-23-5-25-5-8-1 1 17-2 9-4 6-5 4h-2v-25l1-20-3-5-12-9-8-7-10-14-2-3-7 7-8 14-3 10v16l5 15 9 18-1 3-12 3-17 7-7 4-4 4-6 4-16 8-3 1 1 21-3 2h-3l-13-117-2-7-3-2-121-4 2-6 12-20 12-17 11-14 11-13 9-10 9-9 13-9 11-4 10-2 24-1h11l4-5 1-2h-8l-5-3-3-6v-12l3-1h9l7 2h8l6-4 3-5v-10l-18-6h-7l-6 3-2 3h-2l-2-5v-11l4-8 6-4z" fill="#FDC144"/>
<path transform="translate(919,733)" d="m0 0h34l41 1 143 4 24 1 5 5 3 23 10 90v9l14-7 4-3 21-1h27l3 4-1 7-4 4-49 19-22 9h-19l-150-7-37-2-7-1 3-3-1-7-8-7-9-4-13-2-7-39-13-76v-11l6-5z" fill="#3E1A43"/>
<path transform="translate(909,196)" d="m0 0h10l9 4 6 9 2 8h5l7-9 8-4h11l12 4 7 6 3 6v12l-3 7 4 2 2 2 6-1 5-2h8l8 4 7 7 3 5 1 4v9l-3 8-6 6h-2l5 17 9 1 7 4 4 5 2 6v7l-3 9-4 5-6 4-8 2-3 13v4l7 6 3 6v12l-4 8-7 6-4 2h-17l-9 10 1 5 1 3v11l-4 8-8 7-7 2-14-1-10-4-2-2v-42l11-7 12-12 9-14 6-15 3-17v-12l-3-16-5-12-6-10-9-10-11-8-14-6-7-1 16 8 12 11 9 13 5 12 3 12v24l-4 16-8 16-10 13-9 8-2-1-3-10-7-11-8-7-11-5-11-2-116-4-2-3v-10l5-10 8-6 8-1 3-15v-3l-6-4-4-7-1-10 3-9 5-6 10-5 5-1 9-10-3-9v-7l4-10 8-7 7-2 9 1 10 1 6 4 10-1 1-9 4-7 8-5z" fill="#FC819A"/>
<path transform="translate(724,807)" d="m0 0h7l8 3 7 6 4 8 1 3v15l-4 9-8 10-12 14-9 11-13 15-9 11-12 14 2 4 12 13 17 17 7 8 20 20 7 9 2 6v15l-4 10-7 8-10 5h-11l-8-4-65-65-5 5-13 15-44 52-9 10-8 5-8 2-10-1-8-4-7-8-3-8v-12l4-11 6-8 9-10 9-11 11-12 9-11 10-11 9-11 8-9-1-4-68-68-5-9-1-4v-12l4-11 8-9 8-4 3-1h12l9 4 8 7 7 8 20 20 7 8 19 19 7 8 3 2 9-10 9-11 11-12 9-11 10-11 9-11 8-9 6-4z" fill="#FAFCFC"/>
<path transform="translate(994,890)" d="m0 0 29 1 66 3-2 40-3 40v14l5 6 2 1v12l-5 53-8 64-6 41-1-3-11 4-18 4-16 2h-32z" fill="#8772E8"/>
<path transform="translate(237,1244)" d="m0 0 12 1 325 58h16l454-38h8l-2 12-4 15-44 4-418 35-13-1-320-57-8-3-4-5-2-5z" fill="#BFC8D7"/>
<path transform="translate(915,737)" d="m0 0h64l14 1 129 4 15 1 3 10v16l-4 9-7 6-9 4-27 7-15 6-12 8-8 7-9 13-9 17-8 7-10 4h-19l-19-4-15-1-16 2-15 5-4 2h-4l-19-111v-10z" fill="#703169"/>
<path transform="translate(1e3 589)" d="m0 0h19l20 3 18 6 14 7 12 9 8 8 9 14 4 8v3l-8 7-9 9-9 11-13 16-14 20-14 24-1 2-53-1-34-1-5-1-1-81v-41l7-6 15-8 20-6z" fill="#FD829B"/>
<path transform="translate(296,413)" d="m0 0h33v1l-17 1 1 773 4 8 7 6 8 3h14l257-19h9v12l9 1v1l-266 20h-23l-10-3-9-5-8-7-6-10-3-8z" fill="#E28DDD"/>
<path transform="translate(1258,881)" d="m0 0 15 5 16 3 22 1 4 8 7 19 10 33 4 18 1 6v17l-4 11-7 6-2 1h-14l-31-9-25-6-20-3-10-1h-42l-36 4-28 4h-21l-4-2 11-16 11-14 16-16 14-9 12-5 9-2h15l22 4h14l12-5 10-9 7-10 5-11 4-13z" fill="#F8953C"/>
<path transform="translate(392,585)" d="m0 0h214l-11 43-8 29-4 5-5 2-84 1h-75l-6-4-7-24z" fill="#FAFCFC"/>
<path transform="translate(634,708)" d="m0 0h27l24 3 21 5 18 6 25 12 16 10 16 13 12 11 11 12 11 15 11 18 9 19 6 16 6 24 3 23v37l-5 30-7 24-8 20-13 25-11 16-11 14-11 12-14 14-14 11-14 10-23 13-21 9-22 7-24 5-20 2h-25l-25-3-21-5-20-7-23-11-21-14-13-11-12-11-12-14-12-17-10-18-9-21-6-20-4-19-2-18v-30l3-25 6-25 7-20 12-25 9-15 10-14 8-10 9-10 16-16 14-11 14-10 21-12 20-9 21-7 22-5zm-7 11-25 4-22 6-20 8-25 13-16 11-11 9-10 9-16 16-11 14-12 18-10 18-8 19-6 18-5 23-2 15v40l4 25 7 24 8 18 9 17 12 17 13 15 8 8 11 9 15 11 22 12 21 8 18 5 16 3 9 1h38l26-4 21-6 19-7 22-11 21-14 16-13 22-22 13-17 10-15 13-25 5-13 6-18 3-12 2-12 2-18v-27l-3-24-4-18-9-24-8-17-12-19-11-13-7-8-10-10-14-11-15-10-19-10-21-8-25-6-15-2z" fill="#F9FAFC"/>
<path transform="translate(1079,396)" d="m0 0h10l5 4 2 6h3l4-5 2-1h9l6 3 3 4v11l4 1 8-1 8 7 1 9-4 6v4l1 4 7 2 4 6-1 9-6 5h-4l-1 9 5 6v7l-4 6-4 2h-8l-5 6 1 2v8l-5 6-2 1h-9l-8-3-3 1-2 7-4 4-2 1h-11l-6-4-1-7-5 2-5 4-12-1-5-4-1-9 1-3-3-2h-8l-7-3-3-3-1-7 3-6 2-3-1-7-7-1-4-4-1-8 3-5 3-3 5-1 1-9-4-4-1-2 1-9 6-5 10-1 4-4-1-10 3-5 4-3h12l3 2h6v-6l6-5z" fill="#FC819A"/>
<path transform="translate(994,890)" d="m0 0 29 1 66 3-2 40-3 40v14l5 6 2 1v12l-2 7-23 4-30 3-27 18-13 8h-2z" fill="#8872E8"/>
<path transform="translate(911,255)" d="m0 0h16l12 4 11 6 12 11 9 13 5 12 3 12v24l-4 16-8 16-10 13-9 8-2-1-3-10-7-11-8-7-11-5-11-2-60-2-1-1-1-7v-16l3-15 5-13 7-12 11-13 12-9 14-7z" fill="#FAFBFC"/>
<path transform="translate(285,687)" d="m0 0h11l1 500 5 12 7 9 9 6 9 4 5 1h23l239-18 27-2 2-1 35-2 199-15 7-1 33-2h8l7 3-3 3-13 4-558 42h-17l-13-4-10-7-7-8-4-8-2-6z" fill="#EEEDF3"/>
<path transform="translate(1176,1036)" d="m0 0h1l4 106 3 105v34l-74 6h-7l2-6 8-18 6-21 3-19 3-33 5-30 7-26 10-27 16-38 11-29z" fill="#F9FAFC"/>
<path transform="translate(1137,743)" d="m0 0h18l4 2 2 3 5 46v6l-3 2-1 3-11 7-10 3-12 6-1 4-9 7-9 5-8 7-9 4-5 5-14 8-14 7h-3v2l-3 2v2l-10 5-4 5-9 4-8 3h-20l-37-2-7-1 3-3-1-7-8-7-9-4-13-2v-4l18-7 9-2 16-1 15 2 14 3h19l10-4 7-6 12-22 9-11 10-8 12-7 18-6 23-6 9-5 5-6 2-6v-16z" fill="#522251"/>
<path transform="translate(1238,871)" d="m0 0 4 2 15 8-1 9-5 16-7 13-9 10-8 6-10 4h-14l-22-4h-15l-12 3-16 8-10 8-14 14-12 16-8 12-5-1-6-7v-14l3-40 2-34 1-5h22l42 2h19l27-11z" fill="#FCB546"/>
<path transform="translate(934,888)" d="m0 0 11 2 3 1v247l-3 11-6 10-7 8-7 5-12 5-16 2-33 2-20 2-199 15-22 1h-12l1-13 90-7 201-15 13-2 8-4 6-7 3-8z" fill="#A37AE3"/>
<path transform="translate(915,737)" d="m0 0h64l14 1 61 2 17 1 6 1-4 4-25 12-50 25-23 11-36 18-11 5h-4l-1 3-12-70v-10z" fill="#873470"/>
<path transform="translate(645,581)" d="m0 0h237v29l-115 1h-122z" fill="#FAFCFC"/>
<path transform="translate(645,529)" d="m0 0 232 2 5 1v28h-152l-85-1z" fill="#FAFCFC"/>
<path transform="translate(645,478)" d="m0 0h50l170 3 17 1v28h-65l-168-2-4-1z" fill="#FAFCFC"/>
<path transform="translate(881,631)" d="m0 0h1v29l-21 1-197 2h-19v-30l76-1z" fill="#FAFCFC"/>
<path transform="translate(381,552)" d="m0 0h99l136 1 4 3v21l-4 3h-184l-52-1-3-3v-21z" fill="#FAFCFC"/>
<path transform="translate(1221,825)" d="m0 0 8 1 38 8 45 9 31 7 20 4 8 1-2 2v4l-10 10-14 9-11 5-14 4-7 1h-24l-19-4-12-4-16-8-2-4 5-3 2-3-1-7-1-1h-27l-21 1-11 7-2-3v-18l16-9 6-3 6-4z" fill="#FCAC4B"/>
<path transform="translate(229,652)" d="m0 0h10l-12 8-4 6-2 7v552l4 9 4 5 6 3v1h-10l-8-4-5-6-3-7v-554l3-8 7-8z" fill="#BFC8D7"/>
<path transform="translate(285,687)" d="m0 0h11l1 500 4 10-1 3h-14l-1-3z" fill="#D6D2E5"/>
<path transform="translate(1183,555)" d="m0 0 13 1 10 4 6 4 4 6 1 6-3 12-3 7v7l-5 5h-2l4 16 4 6 13 5 12 2v2l9 1 3 1-1 5-10 7-16 6-13 3h-21l-15-4-16-8-5-6 1-4 9-3 10-3 6-5 2-4h-8l-5-3-3-6v-12l3-1h9l7 2h8l6-4 3-5v-10l-18-6h-7l-6 3-2 3h-2l-2-5v-11l4-8 6-4z" fill="#FBAB4C"/>
<path transform="translate(1080,426)" d="m0 0h13l9 4 8 7 6 10 2 7v15l-4 12-6 8-5 5-9 6-10 3h-9l-12-6-8-8-5-11-1-5v-12l4-13 7-10 7-6 10-5z" fill="#FAFBFC"/>
<path transform="translate(934,427)" d="m0 0h13l1 225v81h-27v-1h13z" fill="#8873E9"/>
<path transform="translate(934,888)" d="m0 0 11 2 3 1v247l-3 11-6 10-7 8-7 5-7 3-3-1 2-1 1-11 9-7 4-6 2-6z" fill="#8B75E9"/>
<path transform="translate(1379,1237)" d="m0 0h6v18l-4 6-4 3-16 2-120 10-5 1 4-25 1-3 30-3z" fill="#BFC7D7"/>
<path transform="translate(1055,901)" d="m0 0 5 2 18 27 4 5h2l-2-4 1-4h3v22l-2 25-2 7-15 13-28 22h-3l-1-12v-29l3-23 6-24 8-21z" fill="#8772E8"/>
<path transform="translate(948,652)" d="m0 0h31l6 3 7 8 2 5v67l-41-1-5-1z" fill="#FAFCFC"/>
<path transform="translate(1088,900)" d="m0 0h1v11l11 1 13 3 26 5 28 6 34 7 2 1 12 2 2 1v2h-14l-22-4h-15l-12 3-16 8-10 8-14 14-12 16-8 12-5-1-6-7v-14l3-40z" fill="#FCAB4C"/>
<path transform="translate(1254,728)" d="m0 0 4 5 7 10 5 6 13 10 6 5 1 4-3 45h-16l-21-2-12-25-3-10v-16l4-12 7-12z" fill="#F8953C"/>
<path transform="translate(683,1134)" d="m0 0h3l1 2v44l-13 2-51 4h-14l2-4 1-34-3-1v-2h-5v-1l28-1 26-3z" fill="#D0A4EF"/>
<path transform="translate(1183,555)" d="m0 0 13 1 10 4 6 4 4 6 1 6-3 12-4 8-5 2-4 4-3 12-5 6-9 4h-12l-5-3-3-6v-12l3-1h9l7 2h8l6-4 3-5v-10l-18-6h-7l-6 3-2 3h-2l-2-5v-11l4-8 6-4z" fill="#703169"/>
<path transform="translate(1183,1247)" d="m0 0h1v34l-74 6h-7l2-6 8-18 1-3 2-1 60-5h7z" fill="#BFC7D7"/>
<path transform="translate(1218,855)" d="m0 0h27l3 4-1 7-4 4-67 26-1-2 1-5v-12l4-1-1-10 14-7 4-3z" fill="#703169"/>
<path transform="translate(994,890)" d="m0 0 29 1 21 1 9 1-5 5-14 11-28 24-10 9h-2z" fill="#FC829B"/>
<path transform="translate(928,255)" d="m0 0 9 1 14 5 14 9 9 9 7 11 5 11 3 11 1 8v12l-3 17-6 15-7 11-9 10-10 9-5 3h-2v30h-1v-37l11-10 10-14 7-16 3-13v-24l-4-15-7-14-8-10-9-8-16-8-6-2z" fill="#873470"/>
<path transform="translate(1056,893)" d="m0 0h13l20 1-2 40h-1l-1-6h-2l1 7-3 1-22-33-4-2-2 6-8 21-6 24-3 23-1 40h-1l-1-5v-38l3-22 6-25 8-20z" fill="#A179E3"/>
<path transform="translate(436,592)" d="m0 0h10l3 3v61l-2 2h-12l-2-2v-61z" fill="#E1ACEB"/>
<path transform="translate(466,592)" d="m0 0h10l3 3v60l-3 3h-10l-3-3v-60z" fill="#E2ACEC"/>
<path transform="translate(496,592)" d="m0 0h10l3 3v59l-4 4h-8l-4-3v-61z" fill="#E2ACEC"/>
<path transform="translate(525,592)" d="m0 0h11l2 2v61l-2 2h-12l-2-3v-59z" fill="#E0ABEC"/>
<path transform="translate(554,592)" d="m0 0h11l2 2v61l-2 2h-11l-2-2v-61z" fill="#DFABEC"/>
<path transform="translate(806,261)" d="m0 0h12l-1 2-8 4-5 7-2 7 1 10 4 7 6 4-2 11-2 7-10 3-6 5-4 9v10l1 3h-10l-2-3v-12l4-8 7-6 4-2h6l3-18-6-4-4-7-1-4v-7l4-10 7-6z" fill="#873470"/>
<path transform="translate(488,475)" d="m0 0 5 1-1 5-14 11-16 13-13 10-16 13-10 8h-2v6l-4 4-5 1-6-3-1-2v-6l4-4 8-1 16-13 17-13 17-14 13-10z" fill="#F9FBFC"/>
<path transform="translate(1175,578)" d="m0 0h7l18 6 1 1v10l-5 7-5 3h-8l-7-2h-12v-12l3-8 5-4z" fill="#FBAA4B"/>
<path transform="translate(1081,984)" d="m0 0h2l3 7 5 4v12l-1 4-20 4-26 3-4-1 18-14 14-11z" fill="#8872E8"/>
<path transform="translate(361,363)" d="m0 0h11l7 4 4 6v10l-4 6-5 3-9 1-7-3-5-5-2-5 1-9 5-6z" fill="#F7F8FC"/>
<path transform="translate(510,475)" d="m0 0 5 1 10 9 11 9 13 11 11 9 13 11 10 8h6l5 4v7l-3 3-6 1-5-3-3-8-14-12-10-8-13-11-11-9-13-11-7-6-1-3z" fill="#F9FBFC"/>
<path transform="translate(419,364)" d="m0 0h7l8 4 4 5 1 3v7l-4 7-7 4h-9l-6-3-5-6-1-2v-8l4-7z" fill="#F6F6FB"/>
<path transform="translate(472,366)" d="m0 0h11l6 4 4 5 1 8-4 8-6 4h-11l-6-4-4-5-1-2v-7l3-6 5-4z" fill="#F7F8FB"/>
<path transform="translate(1212,587)" d="m0 0 1 3-3 6-5 2-4 4-3 12-5 6-9 4h-12l-5-3-3-6v-12l3-1h9l7 2h8l6-4 3-5h2v-5l9-1z" fill="#5A2753"/>
<path transform="translate(928,865)" d="m0 0 16 1 9 4 9 8 1 7-9 6-4 1-16-4-6-15-1-7z" fill="#F8943E"/>
<path transform="translate(1033,1347)" d="m0 0h3v4l9 2 3-3h2l2 4v7l-4 4h-22l-7 1h-9l-9-3-2-2v-3l19-7 9-3z" fill="#3F4179"/>
<path transform="translate(1203,1354)" d="m0 0 3 1 1 4v9l-6 3-36 4-6-1 1-7 5-5 22-7h3l2 3 8 1 2-1z" fill="#3F4178"/>
<path transform="translate(1163,647)" d="m0 0 30 2 35 2 4 1v2l-13 5-10 2h-21l-15-4-12-6v-3z" fill="#F8953C"/>
<path transform="translate(1240,855)" d="m0 0h5l3 4-1 7-4 4-21 8-10-3-17-3 1-2 40-14z" fill="#532251"/>
<path transform="translate(1200,834)" d="m0 0 7 1 6 7 2 6-13 6 16 1v1l-21 1-11 7-2-3v-18z" fill="#F8953C"/>
<path transform="translate(849,215)" d="m0 0 8 1-4 3-7 5-4 8-1 9 3 11-7 7-4 5-9-2 2-4 7-8-3-9v-7l4-10 8-7z" fill="#883571"/>
<path transform="translate(1218,855)" d="m0 0h22l-4 2-37 13-18 5-2-5v-4l14-7 4-3z" fill="#863470"/>
<path transform="translate(1290,765)" d="m0 0 5 5 5 10 1 13-2 9-4 6-5 4h-2v-25l1-19z" fill="#F9FAFB"/>
<path transform="translate(1096,427)" d="m0 0 6 1 10 6 7 9 4 11v17l-4 11-6 8-9 8-8 4-14 2 2-2 10-3 9-6 3-1 2-4 5-7 4-12v-15l-4-11-6-8-8-6z" fill="#883571"/>
<path transform="translate(514,580)" d="m0 0h74l9 3-1 2h-69l-1-2 1-2h-13z" fill="#E1ABEC"/>
<path transform="translate(542,423)" d="m0 0h4l1 74 2 6 2 3-4-2-8-7 1-4h2z" fill="#D0A5EF"/>
<path transform="translate(1186,580)" d="m0 0 13 3 2 2v10l-5 7-5 3h-8l2-1v-23z" fill="#F8953C"/>
<path transform="translate(543,664)" d="m0 0h5l-1 3v60l4 1 4-1-3 3-8 4-3-1 1-68z" fill="#D0A5EF"/>
<path transform="translate(928,865)" d="m0 0 16 1 1 2h-2v21l-9-1-6-15-1-7z" fill="#FBAA4D"/>
<path transform="translate(1056,893)" d="m0 0h3l-2 6-7 15-7 21-5 23-2 17-1 40h-1l-1-5v-38l3-22 6-25 8-20z" fill="#C09FF6"/>
<path transform="translate(903,197)" d="m0 0h6l-5 4-5 5-3 6-1 9-17 6-2-5 8-2 1-9 4-7 8-5z" fill="#883571"/>
<path transform="translate(1082,980)" d="m0 0 1 4-11 9-16 13-15 11 14-1 26-4 9-1-1 3-23 4-21 2h-10l-1-4h3l12-9 16-13 11-9z" fill="#C09FF6"/>
<path transform="translate(540,1129)" d="m0 0 9 2v3h-2l-1 56 3 1h-9l1-4v-55z" fill="#D0A5EF"/>
<path transform="translate(1029,429)" d="m0 0h6l-3 3h-2l-2 6 1 8 4 4-2 9-7 3-3 6 1 7 3 4h-5l-4-4-1-8 3-5 3-3 5-1 1-9-4-4-1-2 1-9z" fill="#883571"/>
<path transform="translate(285,653)" d="m0 0h6l2 3v29l-3 2-5-1z" fill="#EDECF2"/>
<path transform="translate(919,733)" d="m0 0h34l34 1v1l-10 1-1 2h-61l-4 2 4-5z" fill="#3E4077"/>
<path transform="translate(1172,579)" d="m0 0 4 1v22l-12 1v-12l3-8z" fill="#FCB546"/>
<path transform="translate(994,1110)" d="m0 0 20 7 21 6 18 3 23 1v3h-18l-20-3-19-5-21-8h-4z" fill="#A179E3"/>
<path transform="translate(1039,1337)" d="m0 0 13 3 1 2-6 11-5 1-7-3 3-12z" fill="#FBAA4A"/>
<path transform="translate(956,204)" d="m0 0h11l6 2v1l-11 2-6 4-5 7-8-1-1-3 6-8z" fill="#883571"/>
<path transform="translate(1191,1345)" d="m0 0 14 1-1 8-2 5-7 1-5-3z" fill="#FBAA4B"/>
<path transform="translate(541,508)" d="m0 0 5 2 4 5-3 2-1 32h-5z" fill="#D0A5EF"/>
<path transform="translate(1048,1350)" d="m0 0h2l2 4v7l-4 4-13-1 4-10 8-2z" fill="#3E1D48"/>
<path transform="translate(1203,1354)" d="m0 0 3 1 1 4v9l-6 3h-9l2-11 8-2z" fill="#3F1D48"/>
<path transform="translate(1027,480)" d="m0 0h5l2 9-4 5-1 6 3 6 2 2-6-1-4-4-1-7 3-6 2-3z" fill="#883571"/>
<path transform="translate(1033,1018)" d="m0 0 3 3-27 18-13 8h-2v-3l18-11 19-13z" fill="#A37AE3"/>
<path transform="translate(1049,406)" d="m0 0h6l-5 4-2 5 1 9-5 6-5-1 4-5-1-10 3-5z" fill="#883571"/>
<path transform="translate(1e3 240)" d="m0 0h8l8 4 2 3-4-1h-11l-6 3-4-1-2-4z" fill="#883571"/>
<path transform="translate(1182,844)" d="m0 0h2l1 20-3 2h-3l-2-20z" fill="#FBAA4A"/>
<path transform="translate(928,865)" d="m0 0h7l1 2-1 20-3-3-5-14z" fill="#FCB14B"/>
<path transform="translate(1240,855)" d="m0 0h5l3 4v5l-13-2-6-2 4-3z" fill="#421C46"/>
<path transform="translate(1206,596)" d="m0 0h4l1 6-5 5-7 4 1-9 5-5z" fill="#F89342"/>
<path transform="translate(1044,506)" d="m0 0 7 6-1 9 2 4 2 2-6-1-3-3-1-9 1-3-3-3z" fill="#883571"/>
<path transform="translate(1168,582)" d="m0 0h1l1 20-6 1v-12l3-8z" fill="#FDC044"/>
<path transform="translate(514,580)" d="m0 0h30l2 1-1 3h-19l1-3h-13z" fill="#D0A5F0"/>
<path transform="translate(1199,1346)" d="m0 0h6l-1 8-2 5-7 1 3-1v-12z" fill="#F8943D"/>
<path transform="translate(1079,396)" d="m0 0 3 1-5 4-3 8-5 2h-3v-2l4-1v-6l6-5z" fill="#883571"/>
<path transform="translate(954,435)" d="m0 0h2l4 6 6 3v1l-10-1-8-5 4-3z" fill="#883571"/>
<path transform="translate(1046,1339)" d="m0 0 6 1 1 2-6 11-2-1v-12z" fill="#F89341"/>
<path transform="translate(1176,877)" d="m0 0h4l1 2v10l-5 5z" fill="#3E4178"/>
<path transform="translate(1202,608)" d="m0 0h2l2 10-3-1h-6l1-5z" fill="#FCB448"/>
<path transform="translate(1072,522)" d="m0 0 5 1 3 7 3 3-6-1-4-3z" fill="#883571"/>
<path transform="translate(1208,850)" d="m0 0 5 1v3l4 1h-17l4-3z" fill="#FDC044"/>
<path transform="translate(1105,400)" d="m0 0h8l-2 2-5 3-2 3-5-1 3-5z" fill="#883571"/>
<path transform="translate(1039,1337)" d="m0 0h1v15l-5-1 3-12z" fill="#FCB545"/>
<path transform="translate(1191,1345)" d="m0 0h4l-1 13-4-1z" fill="#FDB846"/>
<path transform="translate(1130,418)" d="m0 0 7 1 1 2-11 2v-4z" fill="#883571"/>
<path transform="translate(927,866)" d="m0 0h5l-1 10h-2l-2-6z" fill="#FDBB4C"/>
</svg>
