<?xml version="1.0" encoding="UTF-8"?>
<svg version="1.1" viewBox="0 0 1024 1024" width="1280" height="1280" xmlns="http://www.w3.org/2000/svg">
<path transform="translate(0)" d="m0 0h1024v1024h-1024z" fill="#FBFBFB"/>
<path transform="translate(490,234)" d="m0 0h35l21 2 26 5 26 8 25 10 19 10 10 6 14 9 19 14 14 12 25 25 11 14 13 18 11 18 11 23 8 20 7 23 6 31 2 20v35l-3 26-7 30-10 30-9 21-12 23-15 22-9 12-12 14-21 21-11 9-13 10-18 12-16 9-22 10-21 8-24 7-27 5-23 2h-26l-31-3-24-5-20-6-27-11-16-8-19-11-16-11-16-13-10-9-21-21-11-14-10-13-7-11-8-13-8-16-8-18-7-19-7-26-3-18-2-18v-38l3-29 5-23 6-21 10-26 12-24 11-18 13-18 13-15 9-10 11-11 8-7 15-12 23-16 12-7 16-8 20-9 27-9 21-5 20-3z" fill="#0F2039"/>
<path transform="translate(472,472)" d="m0 0h35l9 4 9 7 7 6v1l-21 1-18 13-25 16-12 9-6 9-1 3v14l5 10v2l4 2 5 4 9 4 4 1h9l12-3 15-8 7-5h20l12 14 11 13 9 11 11 12 9 11 10 11 4 6-1 9-4 5-5 2h-10l-4-1-1 12-4 6-5 3-8 1-9-3-1-1-1 11-5 9-6 3h-11l-5-3 1-7v-12l-5-9-6-5-4-2 3-6v-15l-6-9-6-5-4-2-7-1-2-11-4-7-8-7-5-2-10-1-3-9-4-6-6-5-7-3h-12l-12 6-11 11-8 7-6 6-4-2-12-14v-2h-2l-6-9 1-27 8-3 8-4 8-6 7-6 9-14 4-10 3-9 16-8 19-8 14-4z" fill="#BCCFDA"/>
<path transform="translate(339,344)" d="m0 0h18l13 4 10 6 8 8 6 9 4 9 2 10v12h-31l-3-12-4-6-5-4-5-2h-7l-7 3-5 4-4 11v88l3 8 4 5 6 3h12l6-3 5-6 2-5 1-24h-20v-17h52v43l-4 16-7 11-7 7-14 8-11 3h-19l-13-4-11-7-7-7-7-11-4-11v-106l4-13 6-10 11-11 13-7z" fill="#F9FAFA"/>
<path transform="translate(464,346)" d="m0 0h103v34l-98 1-9 4-4 5-2 7v7l3 8 6 5 6 2 63 1 12 3 8 4 10 8 7 8 5 9 4 12v24l-3 8-16-4-6-2-4-5v-2l-4-2-2-11-4-6-6-5-7-3h-63l-13-4-12-7-9-10-6-10-4-13-1-6v-12l4-16 6-10 9-10 10-7 11-4z" fill="#FAFAFB"/>
<path transform="translate(516,506)" d="m0 0h34l15 3 14 6 30 20 13 8 16 7 10 3 8 1v63l-32 14-4 2h-3l-7-9-22-26-9-11-12-14-3-4v-2h-2l-12-16v-2h-35l-10 5-8 5-11 4h-10l-8-5-4-5-1-2v-7l3-5 16-11 14-9 12-8z" fill="#FBFBFB"/>
<path transform="translate(586,346)" d="m0 0h108v34h-37v157h-11l-14-5-6-3v-149h-40z" fill="#FAFBFB"/>
<path transform="translate(247,533)" d="m0 0h48l9 11 5 3v2l5 2 9 4v49h33l5 12 7 15h-96l-10-21-8-27-5-26-2-16z" fill="#B0DEE6"/>
<path transform="translate(680,419)" d="m0 0h61l3 5 6 21 1 5v8h2l3 14v6l1 1v37l-21 1h-56z" fill="#5495B1"/>
<path transform="translate(519,576)" d="m0 0 13 1 11 3 15 7 4 2 9 11 11 12 9 11 10 11 4 6-1 9-4 5-5 2h-10l-4-1-1 12-4 6-5 3-8 1-9-3-3-5-4-5v-2h-2l3 8v9l-4 2v2l-5 2-6-19-6-21-5-14-9-14-8-10-6-7-3-2 2-4 4-3h2v-2h2v-2l6-4 1-2h2v-2h2v-2z" fill="#FBFBFB"/>
<path transform="translate(472,472)" d="m0 0h35l3 1v2l-2 1-1 3h-2l-2 4-9 7-32 16-8 6-3 1v2h-2l-2 4-6 9-4 8-2 7-1 16-12 5-12 9h-2v2h-2l-1 3-5-5-8-11-4-8-3-10v-5l9-7 7-6 9-14 4-10 3-9 16-8 19-8 14-4z" fill="#FAFBFB"/>
<path transform="translate(560,700)" d="m0 0h49l-1 6-14 22-8 10-1 2h-2l-2 4h-2l-2 4-7 7-8 6-15 11-14 7-14 5h-5l2-79 8 5 6 2h13l12-6z" fill="#85BBCF"/>
<path transform="translate(517,534)" d="m0 0h27l9 2 7 5 9 11 7 8v2h2l3 4v2h2l6 8 11 13 3 4v2h2l6 8v2h2l6 8 10-3 14-5h3l1-52 9 1v63l-32 14-4 2h-3l-7-9-22-26-9-11-12-14-3-4v-2h-2l-12-16v-2h-35l-10 5-8 5-11 4h-10l-8-5-4-5-1-2v-7l3-5 5-3 5 5 8 7 6-1 16-8z" fill="#BCCFDA"/>
<path transform="translate(496,257)" d="m0 0h6v25l-1 44h-79l2-6 10-16 8-10 7-8 8-7 14-11 15-8z" fill="#B1DEE6"/>
<path transform="translate(514,257)" d="m0 0 9 1 9 3 16 9 13 10 11 10v2h2l12 16 9 15v3h-79l-1-43z" fill="#AFDDE6"/>
<path transform="translate(711,419)" d="m0 0h30l3 5 6 21 1 5v8h2l3 14v6l1 1v37l-21 1h-17l-1-57-3-20-2-4-5-1-3-2v-2l6-1z" fill="#6DA9C3"/>
<path transform="translate(321,700)" d="m0 0h69l16 28 9 13 9 11 14 14 15 10-2 1-24-7-20-8-24-12-16-10-16-11-14-12-5-4v-2l-4-2-7-8z" fill="#B1DDE6"/>
<path transform="translate(628,700)" d="m0 0h21v2h2v-2h43l-3 5-8 7-8 8-14 11-12 9-4 1v2l-10 5-19 10-17 8-27 9-12 2 1-2 7-2v-2l8-4 5-4 17-17 4-6 3-4h2l2-5 11-17 7-13z" fill="#5394B1"/>
<path transform="translate(281,649)" d="m0 0h92l7 25 2 4v4h-78l-7-8-12-17-4-6z" fill="#B1DEE6"/>
<path transform="translate(247,533)" d="m0 0h48l9 11 5 3v2l5 2 9 4v49h33l5 12 7 15h-58l-3-9-4-20-2-27v-28l-7-8-3-4-43-1v7h-1z" fill="#6DA9C3"/>
<path transform="translate(452,264)" d="m0 0 4 1-14 10-11 11-11 14-9 15-6 11h-66l5-5 13-11 17-12 19-11 16-8 19-8z" fill="#F8FAFA"/>
<path transform="translate(560,264)" d="m0 0 13 2 20 7 22 10 23 13 14 9 15 11v2l4 2 6 5v2l-65-1-10-18-8-11-7-9-5-5-6-7-3-2v-2l-5-2-8-5z" fill="#84BACF"/>
<path transform="translate(408,700)" d="m0 0h30l3 12 10 14 10 5 7 2 5 7 1 3 3 3 4 11v2h2l9 15 7 8v2l-10-2-12-5-9-5-13-9-13-12-8-8-10-13-8-13-8-15z" fill="#F8F9F9"/>
<path transform="translate(254,690)" d="m0 0 5 1 4 3 1 6-1 4h2v2h-7l-6 4 2 1 2-2v3h2l1 2 3 2h5l6-4h6l3 3 1 6-3 7-5 6-8 4-9-1-6-2-5 2-3-2v2l-9-2h-7l-3 1-1-3-4-1-2-4h-2l-21 12h-6l-3-2v-9l5-2v-2l16-8 14-8h2v-2l16-8 14-8z" fill="#F7F9F9"/>
<path transform="translate(794,612)" d="m0 0h6l15 9 9 6 11 7 6 5 6 8 4 8 2 8v9l-3 12-5 9-7 7-10 5-3 1h-12l-4-3-7-1-13-8-3-1-1-2-6-3-8-5-4-3v-2h-2v-5l3-3 5-1 12 6 13 9 10 6 5 2h9l7-3 5-4 4-8 1-3v-10l-3-9-4-6-10-6-9-7v-2l-5-1-7-4-3-3-6-4-1-1v-7z" fill="#0F223A"/>
<path transform="translate(136,606)" d="m0 0h10l9 3 66 1 2 4-1 6-2 2h-59v11l-4 6-6 5-5 2h-11l-8-5-5-6-1-3v-12l4-7 6-5z" fill="#0F223A"/>
<path transform="translate(144,445)" d="m0 0h9l8 3 2 1v2l4 1 5 12v5l9 3 11 4 14 1v2l4 2v6l-4 3h-15l-20-7h-11v2l-5 2h-11l-3-1v-2l-5-1-6-7-2-4v-12l7-11z" fill="#5697B3"/>
<path transform="translate(555,151)" d="m0 0h10l9 3 8 6 6 8 3 6 1 5v11l-8 29-3 5-5 2-5-4 1-9 5-15 2-10-1-11-5-8-6-4-3-1h-9l-10 5-4 6-4 12 2 6v19l-3 5-6 1-4-3v-21l2-5-2-5 1-8 4-9 6-8 10-6z" fill="#FAAB5E"/>
<path transform="translate(896,425)" d="m0 0h10l6 4v5l-4 4-4 1h-43l-9 3-6 4h-2v4l5 1h15l4 2 1 7-3 4h-22l-13-6-3-1h-9l-7 3-2 1h-6l-4-4v-5l6-5 10-3 9-1 9-5 10-7 10-5z" fill="#FBAC5E"/>
<path transform="translate(271,415)" d="m0 0h1l1 66 3 17 4 9 4 8v2h-36v-18l4-27 6-25 7-21z" fill="#F7F9F9"/>
<path transform="translate(438,700)" d="m0 0h12l10 2 5 13 7 7 10 4h13l5-2 1 6 2 51-1 3h-3l-10-13-6-10v-2h-2l-5-13v-2l-3-1-4-7-1-3-10-2-9-6-9-13-2-7z" fill="#3C6D91"/>
<path transform="translate(701,534)" d="m0 0h56l-1 18-10 4-15 5-7 1-15 6-1-1-1 57h-5l-1-2z" fill="#4980A2"/>
<path transform="translate(244,735)" d="m0 0 5 1 4-1 2 2v6l2 2h18v2l8-1 6-7 2-1h6l2 2-1 6-7 9h-2l-2 4-4 3h-2v5l-7 7-2 1h-6l-3-3 1-7-2-3 2-3h3v-2l3-3 1-4-8-1-4 1-1 2h6v2l-5 4h-2l-1 3-3 1v3l2 1v2l-7 1-1-6-3-1-3-7-2-1v-2l-3 1 2 3 1 14-6 7h-2l2 6-4 1-1-5h-7l-8-5v-2h-2l-2-4v-8l-2-8h4v2l2-1v-6l3 1v-4l2-1v-3l2-4 3 1-1 3 3 4 15 4 6 7 2 4h7v-10l-5-7-6-4z" fill="#F9FCF7"/>
<path transform="translate(680,419)" d="m0 0h13l4 8 1 3h-7l4 18 3 24v44l16-1 5 1v1h-39z" fill="#3B6B8F"/>
<path transform="translate(736,533)" d="m0 0h22l9 1v10l-1 7-10 2 1 7-3-1-7 21 5 2 1 3-9 3-11 4-19 5-7 1v-31l2-1 1 1 4-2 10-4 9-2 21-7h2v-16l1-2h-21z" fill="#2F5072"/>
<path transform="translate(865,603)" d="m0 0h8l8 4 7 8 2 6v9l-3 7-6 7-7 3h-12l-8-4-6-7-2-6v-9l4-9 7-6z" fill="#E36467"/>
<path transform="translate(682,650)" d="m0 0h49l-2 6-2 4h-2l-2 6h-2l-1 4-9 12-12 1-33-1 2-6 6-10 2-4h2l1-6z" fill="#6CA8C2"/>
<path transform="translate(461,607)" d="m0 0h8l6 5 1 2v9l-18 18h-2l-2 4-13 12-5 4-2 1-9-1-4-5-1-9 4-6 9-9 8-7 11-11z" fill="#F8FAFA"/>
<path transform="translate(711,419)" d="m0 0 24 1 1 2 1 9 2 7 2 15 1 3v8l-1 2 5-3 2 18-7 5-1 14-2 7-2 4v2h-5l1-9v-16l-1-24-3-20-2-9v-5h-2l-1 4-1-3-3 3 1 12 3 21v49h-4l-1-56-3-20-2-4-5-1-3-2v-2l6-1z" fill="#A2CFDE"/>
<path transform="translate(134,397)" d="m0 0 6 1 2 3v9l2 5 6 2h10l9-5 10-5 15 1 10 5 10 6 4 1 3 3 2 1 1 7-3 1v2h-8l-8-4-3-3-7-3v-2h-3v-2l-11 1-15 8-7 2h-8l-9-3-6-4-6-7-2-5v-9l3-5z" fill="#11243C"/>
<path transform="translate(804,252)" d="m0 0 6 2 2 2v7l-5 5-16 13-19 14-11 8h-2v2l-11 8-3 1v2l-4 1v2h-2v2l-2 1h-6l-3-5v-5l4-4h2v-2l10-7h2v-2l8-6 22-18 14-11 11-9z" fill="#10223B"/>
<path transform="translate(243,220)" d="m0 0h6l8 7 7 8 18 18 14 16 2 1 3 5 11 11 2 5-3 5-1 1h-8l-3-3-3-5-10-10-7-8-5-5-5-4-4-5-2-1v-2h-2l-7-8-15-15v-8z" fill="#0F213A"/>
<path transform="translate(431,583)" d="m0 0h8l6 4 2 4v8l-24 24-8 7-5 4h-8l-5-5-1-2v-10l4-6 16-15 13-12z" fill="#F9FAFA"/>
<path transform="translate(400,837)" d="m0 0h8l7 3 5 4 5 10v8l-4 8-3 3h-2v2l-7 3h-11l-6-3-5-5-4-8v-8l3-8 8-7z" fill="#10233C"/>
<path transform="translate(321,700)" d="m0 0h16l5 4 6 7 8 6v2l4 1v2l6 3v2l4 1v2l5 2 32 20 16 8 8 3-1-2 4 1 8 7 11 7-2 1-24-7-20-8-24-12-16-10-16-11-14-12-5-4v-2l-4-2-7-8z" fill="#F7F9F9"/>
<path transform="translate(248,534)" d="m0 0h13l4 31 6 27 7 20 6 16v3h-12l-10-21-8-27-5-26-1-9z" fill="#F9FAFA"/>
<path transform="translate(586,700)" d="m0 0h23l-1 6-14 22-8 10-1 2h-2l-2 4h-2l-2 4-7 7-8 6-15 11-7 4-2-1 1-3h2l1-3h2l2-5 3-4h2l2-5 5-5 8-11 6-11 11-21 3-6z" fill="#5395B1"/>
<path transform="translate(816,286)" d="m0 0 5 1 3 2v7l-9 8-11 7-4 3h-2l-1 4 2 3-2 2-8 1-3 3h-2l3 7-3 2-4-1v-2h3l-4-1h-5v2l-7-1-3-4h-6l1 8-4 4h-7l-2-2v-8l4-3h5l-1-4 6-1h4l1-4h2l2-4h2v-3l-3-1v-6l5 2 10 2 10-8 21-14z" fill="#F8FBF7"/>
<path transform="translate(516,705)" d="m0 0 8 5 6 2h14l-1 10-5 18-5 14-4 8-3 7-6 10-3 4 2 1h-5z" fill="#3D6E92"/>
<path transform="translate(220,243)" d="m0 0h6l8 7 15 15 2 1v2h2l6 7 2 1v2l3 1 3 3v2l4 2 21 21 1 7-3 3h-6l-10-8-3-3v-2l-4-2-18-18-2-1v-2h-2l-28-28-1-5z" fill="#FBAC5E"/>
<path transform="translate(150,358)" d="m0 0h7l5 5 6 9 4 4 5 1 17-1 10 5 17 11 11 7 1 6-3 4-4 1-12-6-19-12-8-2h-20l-9-7-8-11-4-6 1-6z" fill="#E26467"/>
<path transform="translate(486,634)" d="m0 0 9 1 5 5 1 2v7l-9 10-21 21-5 4-3 1h-7l-5-5-1-3v-8l7-8 9-9h2v-2l8-7z" fill="#F7F9F9"/>
<path transform="translate(811,529)" d="m0 0h89l4 4v6l-3 3h-91l-3-3v-6z" fill="#0E1F37"/>
<path transform="translate(845,338)" d="m0 0h7l4 4v6l-6 5-64 32-9 1-4-5 2-6 8-5 42-21z" fill="#10223B"/>
<path transform="translate(720,732)" d="m0 0h8l5 4v3l4 2 13 12v2l3 1v2l4 2 11 9 7 8 4 3v2h2v2l4 2 4 6-1 7-2 1h-6l-8-7-13-12-8-7-2-1v-2h-2l-1-3-11-9v-2l-4-2-6-7-7-6-1-6z" fill="#5697B3"/>
<path transform="translate(116,529)" d="m0 0h90l3 6-1 5-3 2h-90l-2-4v-7z" fill="#5597B3"/>
<path transform="translate(428,700)" d="m0 0h10l3 12 10 14 10 5 7 2 5 7 1 3 3 3 4 11v2h2l9 15 7 8v2l-10-2-5-5-6-4-7-6v-2h-2v-2h-2v-2l-3-1-9-11-10-14-9-16-7-15z" fill="#AFDCE5"/>
<path transform="translate(865,364)" d="m0 0 5 2 3 2-1 7-4 3-12 6-13 5-8 4-6 2-22 9-9 4h-3v2h-7l-3-2v-9l21-9 20-9 19-8 10-5z" fill="#5496B2"/>
<path transform="translate(673,534)" d="m0 0h12v99h-12z" fill="#FBFCFB"/>
<path transform="translate(507,118)" d="m0 0 9 1 2 5v7l2 1-3 4 1 1 2 23v3h3l1 5-1 2-3 1-1 4h2 3l2-7 2-1 3-6 1-3 4-3h2v3l-3 2-3 7-4 9-1 8v7l-4-3v7l-2 1-2-5-4 1-2 1v-3l-3 3-5-1 6 2-2 2-5-1-3-3 1-7 4-3h7l4 4v-10l-3-1 1-6-9 1-2-2 3-1-3-4v-42z" fill="#F9FCF7"/>
<path transform="translate(360,172)" d="m0 0h8l1 3h2l16 32 12 26v5l-4 4h-7l-6-9-11-21-15-30v-6z" fill="#E46467"/>
<path transform="translate(281,649)" d="m0 0h92l7 25 2 4v4h-25l-5-3-8-15-5-13h-58z" fill="#A2CFDD"/>
<path transform="translate(254,690)" d="m0 0 5 1 4 3v5l-6 5-21 12-17 10-19 11-5 3h-6l-3-2v-9l5-2v-2l16-8 14-8h2v-2l16-8 14-8z" fill="#5596B2"/>
<path transform="translate(568,419)" d="m0 0h16l18 1v89l-5-2-5-3 1-8 2-12v-12l-2-13-3-10-8-15-7-8-7-6z" fill="#345D81"/>
<path transform="translate(548,822)" d="m0 0h8l1 1 2 17v13l-2 5-13 8-1 29-3 3h-6l-2-4h-2v-38l1-3 3-2h11v-2h2v-9l-1-6v-10z" fill="#5697B3"/>
<path transform="translate(455,132)" d="m0 0 6 1 2 3 2 24 1 2 2 27 2 14v15l-5 2-6-1-2-6-2-18-2-25-1-4-1-30z" fill="#5798B3"/>
<path transform="translate(520,281)" d="m0 0h8l3 5 5 12 3 12 2 14 2-1 1-3 3-3 1-3 5-1v2l4 2 1 3h2l1 6h-45v-34l1-10z" fill="#86BCD0"/>
<path transform="translate(402,807)" d="m0 0h6l7 6 7 3 17 3 12 6 5 2 7-1 2-2h6l2 3-1 9-3 3-7 2h-11l-7-3-3-2v-2l-23-4-6-2v-2l-6-2-5-5-2-3v-6z" fill="#5798B3"/>
<path transform="translate(658,783)" d="m0 0 4 1 6 9 7 14 12 22 9 17 1 7-5 5-6-1-5-8-17-34-10-19-2-4v-5l3-3z" fill="#E06467"/>
<path transform="translate(635,795)" d="m0 0 6 1 7 14 5 13 7 16 11 25 1 2v7l-5 4-6-2-12-28-14-34-3-7v-8z" fill="#FBAC5E"/>
<path transform="translate(560,700)" d="m0 0h9l-3 11-6 15-3 7h-2l-1 5-6 10-4 7-5 6h-2l-2 6-3 1-2 5-4 1-2 5-3-1 2-6 4-6 4-11 3-7 6-18 4-18 11-6z" fill="#69A6C0"/>
<path transform="translate(481,133)" d="m0 0 7 1 2 3 2 29v48l-3 3-7-1-1-3-2-33-1-7-1-17v-20z" fill="#11243C"/>
<path transform="translate(497,280)" d="m0 0h3l1 11v35h-26l-4-2 2-9 7-21 6-12h11z" fill="#86BCD0"/>
<path transform="translate(591,812)" d="m0 0 7 1 5 15 13 47 2 9-3 5-7 1-4-5-9-32-8-31v-6z" fill="#10233C"/>
<path transform="translate(647,650)" d="m0 0h35v4h-2l-2 8h-2l-2 6-8 14h-29l3-10 4-8h2l-1-2v-7z" fill="#2F5071"/>
<path transform="translate(714,419)" d="m0 0h27l3 5 6 21 1 5v8h2l3 14v6l1 1v37h-11l-2-2h-5v-3-5l3 1 3-3 1 2 1-10v-11l-4-1 4-4-2-16-4 2v-10l-2-13-2-11-1-1-1-11h-21z" fill="#5394B0"/>
<path transform="translate(688,178)" d="m0 0 6 1 1 7-4 8h-2l-2 6-6 10h-2l-2 6-14 22-4 7h-2l-1 4-4 3-7-1-1-6 4-6 3-7 2-1 4-8 7-10 8-14 3-6 3-1 3-9 2-3z" fill="#5697B3"/>
<path transform="translate(489,259)" d="m0 0 6 1-4 2-5 3h-2v2l-6 5h-2l-2 4-10 10-8 13-6 10-7 15-1 2h-20l2-6 10-16 8-10 7-8 8-7 14-11 15-8z" fill="#F7F9F9"/>
<path transform="translate(182,300)" d="m0 0 7 1 17 6 10 6 7 8 4 8 1 10-4 10-5 3-7-1v-2l-7-1-2-2v-5l10-1 1-2v-6l-6-8-12-6-12-3-6-5 1-7z" fill="#10223B"/>
<path transform="translate(362,788)" d="m0 0 5 1 3 3-1 8-14 27-10 20-6 10-3 2-6-1-2-3 1-7 17-34 10-19 4-6z" fill="#11243C"/>
<path transform="translate(679,768)" d="m0 0 7 1 12 18 7 11 7 10 7 11 4 7v6l-3 3h-6l-6-7-10-16-22-34-1-6z" fill="#FBAC5E"/>
<path transform="translate(132,556)" d="m0 0h76l3 4-1 5-3 3h-75l-3-3v-6z" fill="#0E2038"/>
<path transform="translate(708,194)" d="m0 0h4l3 3v6l-10 13-5 8-3 3-14 19-6 8-7 8-6 1-3-2v-7l2-1 2-5 3-1v-3h2v-3l5-5 6-9h2l5-10 3-4h2l2-5 11-13z" fill="#5898B4"/>
<path transform="translate(382,800)" d="m0 0 7 1v8l-5 11-8 17-13 28-1 4h-2l-2 5-1 2-4 1-5-3v-8l8-17 9-17 6-13 4-9 5-9z" fill="#5596B2"/>
<path transform="translate(389,136)" d="m0 0 6 1 4 5 6 17 5 12 7 19v6l-2 3-9 1-3-4-7-20-3-7v-3h-2l-7-21 1-6z" fill="#5596B2"/>
<path transform="translate(308,752)" d="m0 0h5l2 2v6h-2l-2 5-9 11-8 10-10 12-1 2h-2l-2 5-7 8-4 3h-7v-2h-2v-6l6-8h2l2-4 4-5h2l2-4 8-10h2l2-4 11-13 1-2h2l2-4z" fill="#FBAC5E"/>
<path transform="translate(700,750)" d="m0 0h6l5 5 8 9 11 14 8 10v2h2l4 5 1 7-1 2h-3v2h-7l-3-2v-2l-3-1-2-6h-2l-3-5-13-16-2-5-3-1-4-6-2-1v-7l1-2h2z" fill="#5697B2"/>
<path transform="translate(701,534)" d="m0 0h52l-1 2-18 6-7 1-6 2-10 2h-4v77h-5l-1-2z" fill="#F8FAF9"/>
<path transform="translate(781,228)" d="m0 0 5 2 2 6-3 5-18 18-8 7-15 15-4 2-5-1-3-3 1-6 25-25 6-5 5-6 8-7z" fill="#FBAC5E"/>
<path transform="translate(483,825)" d="m0 0h8l2 3v23l-2 41-3 3h-7l-3-3v-22l2-41z" fill="#11233C"/>
<path transform="translate(501,671)" d="m0 0 7 1 5 6v7l-3 6-9 10-10 9-2 1h-6l-5-3-2-4v-9l9-10 4-2v-2l8-7z" fill="#F8F9F9"/>
<path transform="translate(292,735)" d="m0 0 5 1 7 2v4l-4 4h15l5 2v4h-2v2l9 1 5 3v2l2 1-1 3-9-3-4-2-1 3-4 1-2 6h-2l-1 3-2-1 1-4 4-7h2l-2-7-7 1-3 4h-2l-2 4-11 13-1 2h-2l-2 4-8 10-5 5-9 10h-2l1-4h2l-1-4 6-2v-3h2l2-5 4-4 1-2h2l1-6-4-1-3 1v-2l8-7 1-5h2l1-2 5-5h2l2-4 4-5 1-6-1-1h-6l-5 4-3 4h-3l2-6 1-2z" fill="#F9FCF7"/>
<path transform="translate(894,457)" d="m0 0h6l7 6v10l-3 7-6 4-9 3-1 2-7 2h-19l-5-3v-7l1-2 9-1h11l5-2v-2h2l2-12h2v-2z" fill="#5797B3"/>
<path transform="translate(571,269)" d="m0 0 4 2 3 1 3 2 5 5 15 10 7 5v2l4 2 12 12v2h2l9 12v2h-23l-10-18-8-11-7-9-5-5-6-7-3-2v-2l-4-2z" fill="#5293AF"/>
<path transform="translate(314,204)" d="m0 0 5 1 1 3h2l7 11 5 7v2h2l4 7 1 4h2l4 6 5 7 2 4-1 7-6 2-6-5-10-15-10-14-8-12-3-4-1-6z" fill="#FBAC5E"/>
<path transform="translate(323,235)" d="m0 0 3 1 10 15 8 11 5 2 3-1 1-7-4-6v-5l5 5h2l1 5-1 10-9 3-4-1-4-4-4-6-5 2-2-2v2l2 3h2l-1 3 5 2 1 5h-2l1 3-1 5 1 4-2 2-11-3-4-5-4-1v2l-3-1 2-4v-3l-4-4v-3l4 2 3 4v2h2l5 6h7v-9l-11-14-8-10-5-1h-2l-2 4 1 6 3 4 2 5-3 1-1 3-5-1-2-5 2-2h3v-4l-4-1v-7l4-8 5 1 7 2h2l-3-3 1-2h6z" fill="#F9FCF8"/>
<path transform="translate(433,280)" d="m0 0 3 1-10 11-10 14-11 20h-28l4-6 3-1 2-4 4-4h2l2-4 4-4h2v-2l8-6h2v-2l7-5 8-4 5-3z" fill="#B3DEE6"/>
<path transform="translate(812,555)" d="m0 0h52l3 1 2 3-1 7-2 2h-59l-3-5 1-5 2-2z" fill="#132740"/>
<path transform="translate(741,419)" d="m0 0h7l8 21 2 10-1 2h2l4 15v7l2 6 2 16v20l-9 1h-22v-1h21v-37l-3-1h2l-3-17v-3h-2l-3-18-6-19z" fill="#31587B"/>
<path transform="translate(569,817)" d="m0 0h6l2 1 5 24 3 14v9l-3 8-5 6-6 2h-6l-2-2 1-7 6-4 2-4v-10l-6-29 1-7z" fill="#5798B3"/>
<path transform="translate(696,185)" d="m0 0 1 3-3 6 1 4 4 1 4-4 1-2 4 2-5 5-9 11-1 2h-2l-2 4-6 10h-2l-2 5-7 9h-2v3h-2v3l-3 2-2 5h-2l-1 4-2-4v-2h-3v2h-9l-1-3h7l4-2 1-4h2l2-5 11-18 7-12h2l2-5 6-11h2l2-6z" fill="#F8FAF9"/>
<path transform="translate(719,218)" d="m0 0h6l3 3-1 5-14 17-9 10-5 5-9 11-4 4-7 1-2-5 1-5h2l2-5 6-5 1-2h2l2-4 9-11 5-5 4-5 7-8z" fill="#DB6568"/>
<path transform="translate(125,582)" d="m0 0h51l4 2 1 2v6l-4 3h-53l-4-3v-6l2-3z" fill="#FBAC5E"/>
<path transform="translate(363,700)" d="m0 0h27l16 28 9 13-1 3-5-2-6-4-11-8v-2l-4-2-10-9-15-15z" fill="#A1CEDD"/>
<path transform="translate(717,469)" d="m0 0 2 3v44h-21v-36l3 1 1-8h1v15h2v-8h1v8h2v-16l4-1 4 1z" fill="#5293AF"/>
<path transform="translate(736,236)" d="m0 0h5v2h2l1 5-3 5-13 13-1 2h-2l-2 4-19 19-3 2-5-1-2-2v-6l9-10 4-4h2l2-4 5-5 7-8h2l2-4 5-5z" fill="#E06667"/>
<path transform="translate(156,610)" d="m0 0h65l2 4-1 6-2 2h-59l-1 2v-7l-3-5z" fill="#5495B1"/>
<path transform="translate(628,700)" d="m0 0h21v2h2v-2h2l-2 4-5 5-5 4-4 6-9 7-3 3h-2v2h-2v2l-13 10-10 8-4 3-3-1 7-7 4-6 3-4h2l2-5 11-17 7-13z" fill="#345C80"/>
<path transform="translate(341,201)" d="m0 0h6l7 9 13 21 8 13v5l-5 4-5-1-4-5-24-38 1-6z" fill="#10233C"/>
<path transform="translate(344,777)" d="m0 0 5 2 1 1-1 7-6 10-6 11-14 23-4 4h-6l-2-3 1-7 9-15 16-26 4-5z" fill="#D96469"/>
<path transform="translate(680,432)" d="m0 0h1l1 65 2 4 1-37h1l1 13h10l1 3v36l16-1 5 1v1h-39z" fill="#335B7F"/>
<path transform="translate(622,151)" d="m0 0 7 1 2 3-2 10-12 31-2 5-9 1-3-4 1-8 2-8h2l1-8 4-8 5-12z" fill="#5596B2"/>
<path transform="translate(211,282)" d="m0 0h6l6 5 4 5 6 4 17 17 3 4-1 6-3 2-5-1-7-5-6-7-2-1v-2l-4-2-7-6-9-7-2-3 1-7z" fill="#F9AB5E"/>
<path transform="translate(835,407)" d="m0 0h6l4 5-1 5-3 3-18 7-16 6-6 2-5-1-3-4 1-6 10-5 20-8z" fill="#E16567"/>
<path transform="translate(247,533)" d="m0 0h48l9 11 5 3v2l5 2 9 4v48h-1l-1-21-3-2v-2h-2v-2l-5-1h-9l-1-28-7-8-3-4-43-1v7h-1z" fill="#4F8DAA"/>
<path transform="translate(271,454)" d="m0 0h1l1 27 3 17 4 9 4 8v2h-36v-1h14v-20l4-28 3-12z" fill="#ABD9E3"/>
<path transform="translate(156,658)" d="m0 0h7l6 3 4 4 1 3v10l-4 6-6 3h-8l-7-4-3-5v-11l4-6z" fill="#10223B"/>
<path transform="translate(448,860)" d="m0 0h13l6 5v6l-3 2h-9l-7 2-7 12-6 5h-9l-5-5 2-5 6-3h2l2-5 5-8 4-4z" fill="#FBAC5E"/>
<path transform="translate(215,245)" d="m0 0 3 1-1 5 2 5 4 2 18 18 4 3v2h2v2l4 2 23 23 10 8h6l2-2-1-7-19-19 1-2 6 3 4 6 3 2 1-1 10-1-1 10v10l5 2-1 4h-3v2l-3 1-2-3-11-2-5-5-9-6-3-5v-2h-4l-2-5-7-3-2-6-5-2-2-5-6-1-2 4-4-1-1-4 3-1 1-3-5-5-5-7-4-1-2-3h-9l-1-3 1-2h4l1-5z" fill="#F9FCF8"/>
<path transform="translate(771,669)" d="m0 0 6 2 11 6 10 7 10 6 5 2 6 1v1h-6l-2 7-2 2-7-1-13-8-3-1-1-2-6-3-8-5-4-3v-2h-2v-5l3-3z" fill="#5697B3"/>
<path transform="translate(268,193)" d="m0 0h5l7 8 1 4h2l10 15v3l5 2 3 4-1 6-3 3h-6l-4-5-3-5-8-9-7-9-5-8 1-7h3z" fill="#E16667"/>
<path transform="translate(744,237)" d="m0 0 6 2-1 5-3 2-2 4-5 4h-3v2l-8 7v-3l16-16zm-19 26 2 1-2 5 4 5 1 8-2 3v9l-5 6-3 2h-7l-5-3v-7l5-1v-5l-6-1 1-4 16-16zm-1 7 1 2z" fill="#FBFCFB"/>
<path transform="translate(739,712)" d="m0 0h6l10 8 8 6 2 1v2h2l9 9v6l-3 3h-8l-5-4-3-3v-2h-2v-2l-6-2-5-6-9-7v-6z" fill="#5898B4"/>
<path transform="translate(816,286)" d="m0 0 5 1 3 2v7l-9 8-11 7-12 8-5-1-3-3-1-6 10-8 21-14z" fill="#11243C"/>
<path transform="translate(390,650)" d="m0 0 13 1 2 3 3 10 5 7 5 4 10 3 7 2v2h-35l-3-4-7-22z" fill="#5494B1"/>
<path transform="translate(612,804)" d="m0 0h5l4 4 7 20 5 13 1 6-3 5h-7l-3-4-12-36 1-5z" fill="#D86369"/>
<path transform="translate(643,200)" d="m0 0 6 1 3 4-1 5-8 16-8 15-3 3-6-1-3-4 3-10 13-26z" fill="#DE6568"/>
<path transform="translate(273,712)" d="m0 0h6l3 3 1 6-3 7-5 6-8 4-9-1-6-4-3-4v-5l4-4 12-3z" fill="#E56567"/>
<path transform="translate(550,272)" d="m0 0 6 4 10 9 6 5v2h2l12 16 9 15v3h-15l-7-16-13-22-4-6-3-3-4-5z" fill="#6DA9C2"/>
<path transform="translate(325,765)" d="m0 0 4 1 3 4-2 6-13 19-9 12-3 2-7-1-1-6 6-10 6-8h2l2-6 4-5h2l2-5z" fill="#E26667"/>
<path transform="translate(473,741)" d="m0 0 12 6 15 1 1 1 1 7 1 25-1 3h-3l-10-13-6-10v-2h-2l-5-13v-2l-3-1z" fill="#5495B2"/>
<path transform="translate(710,361)" d="m0 0 5 5 6 12v2h2l4 13 3 5 1 3-1 1h-31l-2-6 13-1z" fill="#80B7CC"/>
<path transform="translate(682,700)" d="m0 0h12l-3 5-8 7-8 8-14 11-12 9-4 1v2l-10 5-19 10-17 8-2-1v-2l5-2 16-8 13-8 18-12 9-8 5-2v-2h2v-2l3-3h2l2-5 9-9z" fill="#3C6C90"/>
<path transform="translate(432,178)" d="m0 0 5 1 3 4 7 30v10l-3 2-7-1-3-7-7-33 3-5z" fill="#FBAC5E"/>
<path transform="translate(912,432)" d="m0 0 1 4-2 3-3 8h-3v-5h-4v3h-5l-3 1h-29v3l3 1-3 2h-15l-5-2v-4l12-7 5-1h43l5-2z" fill="#F9FCF7"/>
<path transform="translate(628,649)" d="m0 0h2l-1 7-7 21-2 5-4 1-26-1 3-9 11-2 6-4 6-7 3-7z" fill="#3D6E91"/>
<path transform="translate(238,668)" d="m0 0h7l3 3v6l-4 4-6 1v2l-20 10-6 1-4-4-1-5 5-5z" fill="#E16567"/>
<path transform="translate(376,662)" d="m0 0 2 4 3 9 1 7h-25l-5-3-7-14v-2h12l19 2z" fill="#85BBD0"/>
<path transform="translate(801,728)" d="m0 0 5 1 3 2 13-1-1 13 3 4v3l-9 1-4 2-3 6-3 1-4-10-9-6 1-3 6-4z" fill="#FBAC5E"/>
<path transform="translate(450,136)" d="m0 0h1l1 9 1 21 2 13 2 26 1 10h-3v3l1 5h-4l-1-3-2-1-1 8h-2l-1 2-8 1 1 4 4 1-1 5-10-3-1-3 3-5 3 1-2-7 6 3 6-3v-10l-6-27h2l-4-8 5 1 2 7-1 6 1 3 3-3-2 8 3 10 1 1 2-4 1-3h2l-2-13-1-4 1-1-2-9-3-1v-5l2-2-1-9-1-6-8-5 4-2h4l1-10z" fill="#F9FCF7"/>
<path transform="translate(507,118)" d="m0 0 7 1 1 1 1 19v22l-3 5-1 1h-5l-3-4v-42z" fill="#FBAC5E"/>
<path transform="translate(889,496)" d="m0 0h6l2 2 12 6v6l-1 2-3 1-1 3h-5l1 4h2 4v4l-4 1 2 1-1 5-12-3 2-2-4-1 1-4 5-2-4-1-10-6v-3l3-1-1-5 4-5h2z" fill="#F9FCF8"/>
<path transform="translate(757,289)" d="m0 0 7 6 2 4-5 4h-2v2l-11 8-3 1v2l-4 1v2h-2v2l-2 1h-6l-3-5v-5l4-4h2v-2l10-7h2v-2l8-6z" fill="#5797B2"/>
<path transform="translate(774,224)" d="m0 0 11 1 4 2v4l4-1 1 2-4 6 2 1-3 1-2 5-4 3h-2l-1 4-5 2-3 7h-6l2 8-9 2-3 5-5 1v2l-11 8-5 1-5-8-4-9 1-3 5-1 2-6 4 1 1-3h6l-1 4-10 10-1 6 3 3 6-1 8-7 11-11h2l2-4 8-7 13-13 1-5-2-4-4-1-5 1v-4h-2z" fill="#F9FCF8"/>
<path transform="translate(291,738)" d="m0 0h6l2 2-1 6-7 9h-2l-2 4-4 3h-2v5l-7 7-2 1h-6l-3-3 1-6 6-7 6-5 7-8 6-7z" fill="#FBAC5E"/>
<path transform="translate(598,700)" d="m0 0h11l-1 6-14 22-8 10-1 2h-2l-2 4h-2l-2 4-7 7-6 5-3-1 2-4h2v-2l5-5 6-8h2l2-5 4-7 10-19z" fill="#3C6C90"/>
<path transform="translate(801,442)" d="m0 0 11 1v3l-8 3-3 3v5l3 3h6l5-3 4-1h9l9 4 7 3h22l4-8 2 2 1 3 3 2v2h5l2 1-1 7-2-1-1-4h-8l-7-1v2l-4 2h-7v-2h-11l-10-4v-2h-4v-2l-4 3-8-2-1 3-14 1-3-2-1-6v-8l1-2h2z" fill="#F9FCF7"/>
<path transform="translate(499,640)" d="m0 0 2 2v7l-9 10-21 21-5 4-3 1h-7l-5-5-1-5 10 1 7-4 5-6 8-7 8-8 7-6h2z" fill="#B6CEDA"/>
<path transform="translate(307,243)" d="m0 0 5 1 7 8 10 13 3 4v7l-3 3h-5l-5-5v-2h-2l-8-11-7-9 1-5z" fill="#FBAC5E"/>
<path transform="translate(473,613)" d="m0 0 3 1v9l-18 18h-2l-2 4-13 12-5 4-2 1-9-1-4-5 1-3 5 2h5l7-6 7-8 8-7 17-17z" fill="#BACFDB"/>
<path transform="translate(169,323)" d="m0 0 7 1v2l7 2 2 6h2v4l4 1v4l-5 1-2-1-1 5-10 1-6-7h-3v-5l1-1-2-3h-3v-6l4 1 1-3z" fill="#F9FCF7"/>
<path transform="translate(718,650)" d="m0 0h13l-2 6-2 4h-2l-2 6h-2l-1 4-9 12-12 1-6-1 4-1 2-7h3v-2h2l1-4 10-12z" fill="#4983A3"/>
<path transform="translate(491,166)" d="m0 0h1v48l-3 3-7-1-1-3-2-35 5-2 7-1z" fill="#5595B1"/>
<path transform="translate(446,591)" d="m0 0h1v8l-24 24-8 7-5 4h-8l-5-5-1-5 3 2h8l10-9 17-17h2v-2l8-6z" fill="#B8CFDB"/>
<path transform="translate(428,700)" d="m0 0h10l3 12 10 14 10 5 7 2 5 7 1 3 3 3-1 6-4-1-1-3-7-2-1-2 3-3h2l-3-5-1 4-5-1-5-3-4-1 1-6h-2l-1 4-2-4-6-2-11-23z" fill="#A2D1DE"/>
<path transform="translate(221,751)" d="m0 0h7l4 2 4 6v9l-4 5-6 3-7-1-5-5-2-4v-6l6-8z" fill="#FBAC5E"/>
<path transform="translate(682,650)" d="m0 0h17l-1 5-8 10-9 12-2 3h-2v2h-11l2-6 6-10 2-4h2l1-6z" fill="#4982A3"/>
<path transform="translate(506,855)" d="m0 0h6l4 3v31l-4 4-6-1-3-3v-30z" fill="#11243D"/>
<path transform="translate(188,408)" d="m0 0h6l10 5 10 6 4 1 3 3 2 1 1 7-3 1v2h-8l-8-4-3-3-7-3v-2h-3v-2h-2z" fill="#5898B4"/>
<path transform="translate(282,650)" d="m0 0h14l7 11 9 13 5 8h-13l-7-8-12-17-3-5z" fill="#F8FAF9"/>
<path transform="translate(810,504)" d="m0 0h33l3 5-1 5-2 2h-33l-3-3v-6z" fill="#0F2139"/>
<path transform="translate(186,437)" d="m0 0 6 1 4 7v2h2v2l15 2 2 3v6l-7 3-12-2-6-4-8-9-1-7z" fill="#5596B2"/>
<path transform="translate(345,148)" d="m0 0h6l4 4 1 3 3 1-1 8 3 3 4 1h9l2 1v6l-4 5-1-5h-2l-1-2h-8l-4 4h-2l1-5 1-3-1-3 1-2-4 1-1 2-15-5-2-5 1-4 6-3-1 5 1 1 1-5z" fill="#F9FBF4"/>
<path transform="translate(173,504)" d="m0 0h33l3 3v6l-3 3h-32l-3-4 1-7z" fill="#0F213A"/>
<path transform="translate(228,734)" d="m0 0h7l9 3 9 7 3 5v8l-3 3h-5l-6-9-4-3-13-3-2-2 1-7z" fill="#FBAC5E"/>
<path transform="translate(550,313)" d="m0 0h3v2l4 2 1 3h2l1 6h-45v-10l12-2h11l2 10 2-1 1-3 3-3 1-3z" fill="#5798B4"/>
<path transform="translate(301,183)" d="m0 0h6l4 2-2 7h2l-1 3-1 1h3l1-5 4 1 1 3-1 7 3 1 1 3-7-1-4 4 1 6 7 10 4 6-1 2-4-3-4-1-1 5-4-1-2-7 2-4v-2l-1-2-3 1v-5l3 1-1-2v-6l4-4-1-3-4 1-1-1v-6l-5-5-2-3z" fill="#F9FCF7"/>
<path transform="translate(794,612)" d="m0 0h6l15 9 9 6 1 3-5 1-1 8-5-2-1-3-5-1-7-4-3-3-6-4-1-1v-7z" fill="#5998B3"/>
<path transform="translate(340,550)" d="m0 0h12v35h-12z" fill="#F9F9FA"/>
<path transform="translate(181,262)" d="m0 0 4 1h3 10l3 2h3l1 1v6h-2l-4 15h-3l-3-7-5-2h-2l-2 4-4-1-2-9 2-9z" fill="#F9FCF7"/>
<path transform="translate(808,478)" d="m0 0h32v2h2l1 6-4 4h-29l-4-3v-7h2z" fill="#5596B2"/>
<path transform="translate(293,268)" d="m0 0 5 2 3 5 11 11 2 5-3 5-1 1h-8l-3-3-3-5-10-10-1-4 5-5z" fill="#5696B2"/>
<path transform="translate(560,700)" d="m0 0h9l-3 11-6 15-3 7h-2l-1 3-3-1-1-2h-2v-13l2-11 6-4z" fill="#5394B0"/>
<path transform="translate(264,327)" d="m0 0h6l3 4-1 7-4 3-3 1-4 9-3 2-10-1-2-4v-8l10-6 1-2 5-3z" fill="#5999B4"/>
<path transform="translate(283,832)" d="m0 0h12l1 2 7 2 1 5 5-1 4 2-1 2h-12l-6 4-2 1h-8l-8-2-1-4h2l-1-5-3-1-1-4 5 1v2l3-1z" fill="#F9FCF7"/>
<path transform="translate(231,361)" d="m0 0h9l5 5 2 7-3 6-4 3-6 1-7-3v-2h-2l-1-3v-7l5-6z" fill="#E36467"/>
<path transform="translate(753,714)" d="m0 0 4 2 2 4v3l6 1 2 3 7-4h5l1-4 4 2 1 3 8 6 5 5-1 3h-2v3l-2 1 1 3 6 3 2 4-1 3-1-2-8-2-5-7h-3v-6l6 1v-2h4l-1-3-7-1-3-5-4 1-3 3-3-2 5 5-1 3h-2v-2l-4-2-4-3v-2h-2v-2l-5-2-3-2v-2l-5-2-2-3z" fill="#F8FCF7"/>
<path transform="translate(647,794)" d="m0 0 7 1 8 14 3 6-1 8 3 6-1 3-3 1-2-6-4-1-3-5-3-1-5-12 1-2 2 2-2-7-1-6z" fill="#FBFCFB"/>
<path transform="translate(608,296)" d="m0 0 4 2 12 12v2h2l9 12v2h-23l-6-11 2-4 11-2v-2h-2l-4-4v-2h-2v-2l-3-1z" fill="#4A83A4"/>
<path transform="translate(582,136)" d="m0 0 8 1h3v2l6-1 5 2 1 2v6l-5 4-4 2-1 4h-2v2l-4 2 2 5-1 1 2 1v3h-3l-6-10-5-6 2-2 4 5 4 1 1-3 2-1 1-4-3-1-4 1-1-4 3-4-5-1-1-5z" fill="#F9FCF7"/>
<path transform="translate(714,419)" d="m0 0h27l3 5 4 13v7h-2l-1 2h2l3 12-4 3 1 1v7h-1l-1-5-4 2v-10l-2-13-2-11-1-1-1-11h-21z" fill="#68A5BF"/>
<path transform="translate(655,162)" d="m0 0 3 1 4 7 6 2-2 4-8 9-5 2-2-1v-2l-9-3 1-4 1-5-1-5 1-1 9-2z" fill="#DD6468"/>
<path transform="translate(529,823)" d="m0 0 7 1 2 8 1 8 1 1v7l-1 2h5l1-3h2v2h-2v2l-4 1h-10l2-5-4 1-1-3h-3l-1-5-2-12 3-4 4 1z" fill="#F5FAF5"/>
<path transform="translate(472,346)" d="m0 0h95v34h-9v-33h-86z" fill="#BCD0DB"/>
<path transform="translate(700,223)" d="m0 0h2l-1 3-2 1v5l2 1 1 5-11 14h-2l-2 4-5 5-2 3h-3l-1-10 12-16 8-11z" fill="#F8F9F7"/>
<path transform="translate(808,582)" d="m0 0h7l5 3 2 2v8l-3 4-3 1h-11l-5-4-1-7 3-5z" fill="#11253D"/>
<path transform="translate(701,536)" d="m0 0h1v37h3l1-5h1v56h-5l-1-2z" fill="#92BCCE"/>
<path transform="translate(532,189)" d="m0 0 5 1 2 3v19l-3 5-6 1-4-3v-21l3-4z" fill="#11233C"/>
<path transform="translate(224,639)" d="m0 0 7 1 4 4 1 8-3 5-4 2h-8l-4-2-2-4v-7l2-4z" fill="#10233C"/>
<path transform="translate(568,419)" d="m0 0h16l3 3v15l9 2 2 1v10l-2 12h-2l-4-13-8-15-7-8-7-6z" fill="#5292AF"/>
<path transform="translate(777,701)" d="m0 0 5 2 8 7 7 7 1 5h-3v2l-7 1-11-9-5-5v-6l2-3z" fill="#FBAC5E"/>
<path transform="translate(633,791)" d="m0 0 5 1 5 2h2l2-1 1 10 2 3v7h-1l-2-6-3-3-3-6v-2h-8v10l12 29 2 5v5l-1-2h-3v5h-5v-2l-2 2v-5h4l2-8-3-7v-2l-4-2-2-8-3-7v-4l-5 1-2-6h5l-1-6z" fill="#F9FCF7"/>
<path transform="translate(548,396)" d="m0 0h54v6h-55z" fill="#345D80"/>
<path transform="translate(741,456)" d="m0 0h1v8l-1 2 5-3 2 18-7 5-1 14-2 7-2 4v2h-5l1-9h2v-6h2v-2h-2v-13l4-5z" fill="#87BDD1"/>
<path transform="translate(863,616)" d="m0 0h9l5 4 1 2v7l-5 6-7 1-5-3-3-4v-7z" fill="#FAFBFA"/>
<path transform="translate(679,765)" d="m0 0 1 3-4 4 1 6 22 34 7 11 1 2-7-1-4 1-1-3 2-5-1-1h-5l1-4h2l-1-5h-3v2l-4-1-1-8h2l-4-6-4 2-2-2 1-4-2-1-3-12-1-8h3v-2z" fill="#F9FCF7"/>
<path transform="translate(457,705)" d="m0 0 2 4 2 7 2 1v3h-2l2 5v5l-5 1-9-6-9-13v-2h2v-2h2v2l10-2h2z" fill="#4980A2"/>
<path transform="translate(742,484)" d="m0 0h6v12l-1 10-4 1-3 1-1 5h6l1 3-10 1h-17l4-1v-7l1-1h8v4l4-1v-2l-2-1 3-1 2-7 1-14z" fill="#6BA8C2"/>
<path transform="translate(145,456)" d="m0 0h9l5 6-1 10-4 3h-9l-5-4v-10l1-2h2v-2z" fill="#F0F7F4"/>
<path transform="translate(598,215)" d="m0 0h7l4 2 3 5-1 8h-2l-1 3-2 1h-8l-3-2v-2h-2l-1-8 4-6z" fill="#DA6568"/>
<path transform="translate(306,772)" d="m0 0 2 2-9 11-5 7-4 4-1 3-3-2-1 7-2 1 1 3-7 7v-2l-7 5-3 5h-7v-3h-2l-2-4 1-8 2 2v4h2v2l7-1 4-2 2-4 6-7 1-2h2l2-4 18-22h3z" fill="#F9FCF8"/>
<path transform="translate(844,726)" d="m0 0h6l4 3h2l1 2v6l-3 3-5 3 12 3-1 2-6 2-8-1v-4l-6-2v-4l-4-2 2-5 2-1 2 6 9 2v-2l-6 1-4-4 1-6z" fill="#F9FCF7"/>
<path transform="translate(512,678)" d="m0 0h1v7l-3 6-9 10-10 9-2 1h-6l-5-3-1-3 2-2v2l8-1 18-18 2-3h2v-2z" fill="#B5CDD9"/>
<path transform="translate(783,641)" d="m0 0h9l4 3 1 9-2 4-9 3-6-3-2-2v-9z" fill="#10223B"/>
<path transform="translate(667,700)" d="m0 0h13l-3 5-10 10-4 1v2l-5 5-2-1v-1l-1-2h-2l-1-2-3 3-5 4-2-1 5-6 13-10z" fill="#6CA8C2"/>
<path transform="translate(302,559)" d="m0 0 19 2v19h-3v-2h-2v-2l-5-1h-9z" fill="#4982A3"/>
<path transform="translate(195,583)" d="m0 0h17l4 4-1 6-2 3-5 1h-8l-6-2-2-3v-6z" fill="#12253E"/>
<path transform="translate(455,312)" d="m0 0 6 1 8 6v2h2l1 3 3 2h-33l2-6 3-3z" fill="#A4D1DE"/>
<path transform="translate(719,429)" d="m0 0 4 2 3-1 5 25v5l-3 1-1 3v-4h-2l-1 8-2-1-4-27z" fill="#72ADC6"/>
<path transform="translate(550,272)" d="m0 0 6 4 10 9 6 5v2h2l7 9-1 5-6 2-2 1-12-21-4-6-3-3-4-5z" fill="#85BBCF"/>
<path transform="translate(816,471)" d="m0 0h5v3l8 1 2-4 5 2v2l9 3 1 5 1 3-5 6h-2l-1 2-1-1h-24v-2l-7-1v-3l3 2h29l3-1v-8h-2v-2h-32l1-2 7-1-8 1-4 1h-4l1-4 4-1 6 1 4-1z" fill="#F9FCF7"/>
<path transform="translate(861,398)" d="m0 0h23l4 3-1 7h-28l-1-1v-7z" fill="#5B9AB5"/>
<path transform="translate(716,436)" d="m0 0 3 4 4 27v49h-4l-1-56-2-15z" fill="#A9D8E2"/>
<path transform="translate(881,564)" d="m0 0 7 2 2 2-2 2v6 2l1 3 4-1 2-4 1 4 2 1-1 3 3 1v6l-3 4h-7v-2l-3-1-4-6v-2l-1-4 1-1v-8l-2-1-1-5z" fill="#F2F9F4"/>
<path transform="translate(507,197)" d="m0 0 5 2-2 4 4 2 2 3v9l-5 3h-7l-4 1h-7l-1-3 4-1h4v-7l3-5 1-4-2-1z" fill="#F9FCF7"/>
<path transform="translate(771,346)" d="m0 0h7l4 4-1 7-8 5-9 1-4-4 1-7 7-5z" fill="#11243D"/>
<path transform="translate(107,464)" d="m0 0h6l7 3 1 12-5 2h-8l-3-1v-2l-7-1-2-1v-4l6-1 3-1 2-4z" fill="#F9FCF7"/>
<path transform="translate(693,248)" d="m0 0 3 4 1 4 4-1-6 8-7 9-4 2h-5l-2-5 1-5h2l2-5 6-5 1-2h2z" fill="#5695B1"/>
<path transform="translate(415,214)" d="m0 0 7 1 4 4 1 7-4 6-9 1-5-5-1-7 3-5z" fill="#132841"/>
<path transform="translate(576,888)" d="m0 0h11l1 2 4-1 1 7-2 6-3-1-3 3-9-1-5-3-2-5 2-3 4-1z" fill="#F5FAF5"/>
<path transform="translate(628,700)" d="m0 0h21v2h2v-2h2l-2 4-7 5h-3l-1 2-2-1v-2h-5v6l-6 2-6 3h-3l2-5 7-13z" fill="#2F5172"/>
<path transform="translate(427,139)" d="m0 0h2l4 10 4 4v3h-2v2l-9 3-2 3-4-2-2-14-3-4 8-1z" fill="#5596B2"/>
<path transform="translate(458,849)" d="m0 0h7l1 5-7 1 2 2 3 1v-2h2l3 4v7h2l-2 6h-3v-8l-5-4h-13l-7 3-4 2 1-4 4-4h6v-2l-6-2 1-3z" fill="#F9FCF7"/>
<path transform="translate(496,257)" d="m0 0h6v25l-1 9h-1l-1-8-2-1h-11l1-5 6-11 3-5z" fill="#A3D0DE"/>
<path transform="translate(418,448)" d="m0 0 5 5 6 5v2l6 2 4 4-13 6-6 3h-2l-1-26z" fill="#508EAB"/>
<path transform="translate(856,305)" d="m0 0 7 1 4 5v6l-4 5-2 1h-8l-4-4v-9l4-4z" fill="#10233B"/>
<path transform="translate(702,766)" d="m0 0 5 5 9 11-1 2-6-3-4 7h-3l-1 4-4-5-10-15v-2l4 1 6 2 2 2 4-1 3 1-4-6z" fill="#F3F9F5"/>
<path transform="translate(577,651)" d="m0 0h3v16l-4 6-5 3-8 1-3-1 3-12 1-1 9-2 3-1v-8z" fill="#B9CEDA"/>
<path transform="translate(400,849)" d="m0 0h7l5 4 1 7-2 4-5 3-7-1-4-5v-6l3-5z" fill="#F2F6F7"/>
<path transform="translate(659,728)" d="m0 0h2l-1 4-11 8-4 1v2l-10 5-19 10-17 8-2-1v-2l5-2 16-8 13-8 18-12 5-3z" fill="#355E82"/>
<path transform="translate(310,619)" d="m0 0 4 2 18-1 3 6 1 5h-26l-2-6 1-3z" fill="#87BDD1"/>
<path transform="translate(780,311)" d="m0 0 4 1 3 5 2 3-11 9-2 1h-6l-3-3v-6l9-8z" fill="#FBAC5E"/>
<path transform="translate(599,633)" d="m0 0 5 5 1 2-1 9-4 5-5 2h-10l2-6 1-8 7-1 3-2z" fill="#BBD0DB"/>
<path transform="translate(413,757)" d="m0 0h2l1 2 10 3v3l1-2h4l-1-2 4 1 8 7 11 7-2 1-24-7-20-8 3-3z" fill="#EFF4F5"/>
<path transform="translate(501,756)" d="m0 0h1l1 25-1 3h-3l-10-13-5-8v-2h16z" fill="#477EA0"/>
<path transform="translate(211,282)" d="m0 0h6l6 5 4 6-6 9-5-2-7-6-2-3 1-7z" fill="#11253E"/>
<path transform="translate(348,420)" d="m0 0h16v2h16l6 5v1h-38z" fill="#A6D0DE"/>
<path transform="translate(219,304)" d="m0 0 5 1 5 4v2l3 1 6 7 8 5 5-1 3-1v5l-1 1 3 2-4 2-3 1v2h-2l-1-6h-2v-2l-4 1v-2l-5-1-2-7-4 2v-2l-5 2-1-3 3-7-5-2-2-1z" fill="#F9FCF7"/>
<path transform="translate(133,337)" d="m0 0h6l5 4 1 6-2 5-4 2h-7l-4-3v-10z" fill="#E56567"/>
<path transform="translate(149,304)" d="m0 0h12v2l3-1 1 8-1 3-7 3-1-2 5-3v-1l-3 3-6 2h-1v2h-4l1-4-5-2v-6z" fill="#F9FCF7"/>
<path transform="translate(893,498)" d="m0 0 7 1 4 6-1 6-5 4h-7l-4-3-1-8 4-5z" fill="#FBAC5E"/>
<path transform="translate(140,617)" d="m0 0 5 1 4 4v8l-4 4-7 1-5-5-1-6 5-6z" fill="#F0F4F6"/>
<path transform="translate(755,689)" d="m0 0 6 1 4 2v8l-2 4h-2v-2l-7 1-3 1v-2l-5-1-2-7 7-4z" fill="#F9FCF7"/>
<path transform="translate(514,257)" d="m0 0h6l-3 1 2 6h2l7 12v4h2l-1 3-5-1h-7v10h-1l-1-9z" fill="#A2CFDE"/>
<path transform="translate(741,419)" d="m0 0h7l8 21 2 10-2 1-2 4-3-1-5-21-4-12z" fill="#335B7F"/>
<path transform="translate(647,846)" d="m0 0 5 5 10 24 5 1 4-3 1-9h4v12l-3 3-6 1-4-1-2 1-2-2v-3l-3-4-1-7h-6v-5l-3-1 1-4-3-5 3-1z" fill="#F9FCF7"/>
<path transform="translate(736,533)" d="m0 0h22l9 1v10l-1 7-11 3-1 1h-5l3-2 4-1v-16l1-2h-21z" fill="#305475"/>
<path transform="translate(799,329)" d="m0 0h10l3 7-1 5-3 3-2 1h-6l-5-4 1-10z" fill="#5C99B5"/>
<path transform="translate(577,112)" d="m0 0 3 1 3 4 2 3-2 7-3 2-6-1v-2l-5 1-2-3v-8l2-3z" fill="#EBF4F2"/>
<path transform="translate(857,716)" d="m0 0 4 1-1 6h4v6h-9-3v-2h-8l-2 3 1 6 6 1h2v2h-7l-4-3-1-9-3-1 1-6h7v2l6 1 2-3 4-2z" fill="#F9FCF8"/>
<path transform="translate(430,167)" d="m0 0 2 1 2 8-5 5-1 4 8 36 4 4 3 2-5-1-5-3-3-12-6-2 2-9v-8l-1-1v-12l4-1-1-9z" fill="#F9FCF7"/>
<path transform="translate(621,298)" d="m0 0 6 2 11 8 2 1v2l4 2 5 4 4 2 5 5 6 1v1h-16l-12-13-2-1v-2h-2v-2l-4-2-5-4-2-1z" fill="#A5D2DF"/>
<path transform="translate(273,757)" d="m0 0 5 2 3 5-1 4-8 7h-6l-3-3 1-6 6-7z" fill="#DC6468"/>
<path transform="translate(755,211)" d="m0 0 7 1 3 4v6l-5 5h-6l-5-5v-6l3-4z" fill="#11243D"/>
<path transform="translate(653,700)" d="m0 0h14l-6 7-10 8-3-1-6 3-1 2h-4l2-4 5-5 5-6z" fill="#4982A4"/>
<path transform="translate(348,419)" d="m0 0h20l9 1 11-1 12 1 1 6h2v2h-17l-6-5-16-1v-2h-16z" fill="#3E6F92"/>
<path transform="translate(242,285)" d="m0 0v3 14l3 2v2l2-1v-3l5-1 3 1-2 6-5 4-18-18v-3h3v-3z" fill="#F9FCF8"/>
<path transform="translate(711,419)" d="m0 0 12 1 2 10-2 4-1-3-3 3-2 4-2 2-2-4-5-1-3-2v-2l6-1z" fill="#85BBD0"/>
<path transform="translate(904,418)" d="m0 0h5l1 8-56 1-12 6h-3l2-4 3-3 12-3h39l10-1z" fill="#F9FCF7"/>
<path transform="translate(720,285)" d="m0 0 5 1 3 4-1 6-7 6h-5l-4-4 1-5 5-6z" fill="#5496B2"/>
<path transform="translate(390,650)" d="m0 0 13 1 2 3v5l-9-1 5 22-1 2-3-4-7-22z" fill="#335A7D"/>
<path transform="translate(664,817)" d="m0 0h2l5 11-2 1v3l-1 5h-3l-1 4-1 3h-2l-9-21-1-3 4 1 3 5 3 1 2 5 3-1-2-7-1-4z" fill="#F9FCF7"/>
<path transform="translate(757,488)" d="m0 0h1l1 9 4 4h3l1 3v12l-9 1h-22v-1h21z" fill="#366083"/>
<path transform="translate(507,118)" d="m0 0 7 1 1 1v16h-10l-1-2v-13z" fill="#5394B0"/>
<path transform="translate(124,579)" d="m0 0 18 1v1l-17 2-3 1-1 2v6l3 2v2h53v1l-55 1-5-3v-3l-3-1 3-1h-3-2l-1-5 1-2 6 1 3-1 1-3z" fill="#F9FCF7"/>
<path transform="translate(450,136)" d="m0 0h1l1 9 1 21 2 13v8l-2-1-2-9-3-1v-5l2-2-1-9-1-6-8-5 4-2h4l1-10z" fill="#ECF6F3"/>
<path transform="translate(537,747)" d="m0 0 3 3-1 7-2 4-2 6-3 1-2 5-4 1-2 5-3-1 2-6 4-6 4-11 4-4z" fill="#5799B4"/>
<path transform="translate(813,725)" d="m0 0h3v2l5-2h7l-2 8-1 3 1 3 2 1-1 6-3 4-3-6-1-1 1-9 1-4-7 2h-6l-8-4 4-2 4 3 4 1z" fill="#F9FCF7"/>
<path transform="translate(609,668)" d="m0 0h2l-1 9-2 5h-18l3-9 11-2z" fill="#5393B0"/>
<path transform="translate(875,665)" d="m0 0h2l3 6v5l-6 7-4-1-5-3-1-7 2 1 6-7z" fill="#F9FCF7"/>
<path transform="translate(349,245)" d="m0 0 5 5h2l1 5-1 10-9 3-4-1-4-4-4-6-5 2-2-4 4-6 5 3 7 10 5 2 3-1 1-7-4-6z" fill="#F9FCF7"/>
<path transform="translate(204,790)" d="m0 0h6l2 3v7l-4 3-7-2-1 2-3-1v-4l-5-3 1-3 10-1z" fill="#F9FCF7"/>
<path transform="translate(190,691)" d="m0 0 6 1 3 4v6l-5 4h-6l-4-5 1-6z" fill="#FBAC5E"/>
<path transform="translate(548,710)" d="m0 0h3l-2 10v11l-5 3h-2l-2 6-3 6-1-4 5-16 3-14z" fill="#86BCD0"/>
<path transform="translate(812,430)" d="m0 0 3 2-3 1 7 3 1 5 5-2 8-1v-3l-3-1v-2l-2-1 4-1 3 3 3 1-1 3-10 6-7 1-4-1v-3l-2-1-10-1-3-2v-2z" fill="#F9FCF7"/>
<path transform="translate(438,700)" d="m0 0h12l10 2-2 4-2 3-12 1v-2h-2v2h-2l-2-5z" fill="#3B6B8F"/>
<path transform="translate(528,825)" d="m0 0h7l1 2v14l-2 2h-7l-1-3v-12z" fill="#5E9DB7"/>
<path transform="translate(556,312)" d="m0 0h7v2l5-1v5h2l5 7v1h-14l-1-6h-2l-5-5v-2z" fill="#A1CFDD"/>
<path transform="translate(538,145)" d="m0 0 5 1 3 4 9-3h9l11 5-3 2-7-2h-10l-10 3-9 6-2 2 1-4 3-1 1-8z" fill="#F9FCF8"/>
<path transform="translate(628,293)" d="m0 0 9 2 15 10 15 11v2l4 2 6 5v2h-5l-5-6-5-3v-2l-5-2v-2l-5-2-3-2v-2l-4-2-17-10z" fill="#3B6A8D"/>
<path transform="translate(292,223)" d="m0 0 5 1 4 5-1 6-3 3h-6l-4-5-3-6 4-1z" fill="#162C45"/>
<path transform="translate(597,483)" d="m0 0 3 4 1 5 1 2v15l-5-2-5-3 1-8 2-12z" fill="#335A7E"/>
<path transform="translate(172,328)" d="m0 0h6l4 4-1 7-3 3-5 1-5-4v-7z" fill="#FBAC5E"/>
<path transform="translate(595,138)" d="m0 0 7 1 3 3v6l-5 4h-6l-3-3-1-5 3-5z" fill="#D16569"/>
<path transform="translate(428,700)" d="m0 0h10l3 12 1 5-1 4-3 1-8-15z" fill="#ACD6E1"/>
<path transform="translate(231,718)" d="m0 0 2 1-1 4 2 3-1 6-5 1v2l-3 1-1-3-4-1-2-4 1-3z" fill="#F1F9F5"/>
<path transform="translate(413,344)" d="m0 0h14l-5 5-9 10-4 5-2-3 1-6 4-10z" fill="#EDF2F3"/>
<path transform="translate(195,661)" d="m0 0h7l4 3v6l-2 1h-12l-4-2v-5l2-2z" fill="#5999B5"/>
<path transform="translate(463,138)" d="m0 0 2 1 2 16h2l1 5v16l1 4-2 4-1 5h-1l-2-27-1-2z" fill="#EBF5F2"/>
<path transform="translate(345,148)" d="m0 0h6l4 4v7l-4 3-7-1-3-5 1-5z" fill="#FBAC5E"/>
<path transform="translate(515,747)" d="m0 0h1l1 15 3 1-1 3h3l2 2 1 3-8 12 2 1h-5z" fill="#345E81"/>
<path transform="translate(658,651)" d="m0 0h22l2 3h-2l-1 5-4-2-15 1-1 2-4-1 2-7z" fill="#345D81"/>
<path transform="translate(884,553)" d="m0 0 7 1 3 5 1 6-3 2h-6l-5-3-1-7 1-2h3z" fill="#F9FCF8"/>
<path transform="translate(758,477)" d="m0 0h3l1 2 3 1 2 16v8l-1-3h-3l-1 3-3-5-1-5 1-12z" fill="#335A7E"/>
<path transform="translate(623,307)" d="m0 0 5 4 3 1v2h5l6 4 6 8h-13l-6-9-3-3v-2h-2l-2-4z" fill="#6EAAC3"/>
<path transform="translate(768,228)" d="m0 0 3 1v2l4-1v3h-2l-2 4-4 4h-2l-2 4-5 4-4-1v-2h-2v-2h2v-2l-2-1 8-4 5-1 2 1v-2h2z" fill="#F9FCF8"/>
<path transform="translate(856,439)" d="m0 0 3 1v1h6l-1 4-5 1-1 3 6 1v1l-15 1-5-2v-4z" fill="#FBFCFB"/>
<path transform="translate(388,809)" d="m0 0h3v2l5-2 4 1v6l2 5 10 5-2 3-6-2-1-4-6-2-1-1v-5h-2l-1 2-3-1-3 3-4 3 3-9z" fill="#EAF4F2"/>
<path transform="translate(899,582)" d="m0 0 4 2 1 4-3 7-3 2h-3v3h-14l-4-1-1-4 2-1h8l1-4 3 3v2l7-1 2-3v-6l-2-2z" fill="#F8FCF6"/>
<path transform="translate(717,469)" d="m0 0 2 3v44h-20v-3l14-1 2-3h3l-1-13h-1v-24z" fill="#4981A3"/>
<path transform="translate(777,686)" d="m0 0 9 5v2l4 1 12 7-1 2-5-2v-2l-6-2-2-1-2 4-1 4h-3l-2-3-4-2 2-4-2-4 1-3z" fill="#F1F8F5"/>
<path transform="translate(271,449)" d="m0 0h1v5l-2 2-4 18-3 22-1 20h-3v-12l3-26 2-9 2-12z" fill="#F9FCF7"/>
<path transform="translate(549,397)" d="m0 0h25l3 2 2-1v4h-32z" fill="#81B8CD"/>
<path transform="translate(566,825)" d="m0 0 2 4 5 25v6h-2l-2-12h-3l-2-1-3-11 1-4h3z" fill="#F2F8F4"/>
<path transform="translate(856,482)" d="m0 0h1v6l5 2h19l7-1-1 2h-2v2l-9 1-10 1v1h-6l-2 4-3 1v-5h3l-1-4-2-3zm37 2 3 1-8 4 1-3z" fill="#F9FCF7"/>
<path transform="translate(181,420)" d="m0 0h11v2h3v2l5 1 5 3-4 1h-7l-1 2-6-1-6-3-1-3z" fill="#F1F7F4"/>
<path transform="translate(674,621)" d="m0 0h11v12h-12v-11z" fill="#BDCFDA"/>
<path transform="translate(341,573)" d="m0 0h11v12h-12v-11z" fill="#BED0DB"/>
<path transform="translate(672,139)" d="m0 0 6 2 1 7-3 4h-3v2l-5-1-2-10 2-3z" fill="#D9EAEB"/>
<path transform="translate(750,328)" d="m0 0 7 1 2 4-1 5-3 3h-7l-2-2v-8z" fill="#122740"/>
<path transform="translate(718,371)" d="m0 0 4 4 10 15 4 7 1 5h-7l-2-7-3-5-2-10h-2z" fill="#3F6F92"/>
<path transform="translate(575,198)" d="m0 0 2 3-4 12h-2l-1 9-2 1-3-7-2-3v-10l2-3 3 2 1 9 2-5h2l-1-4z" fill="#F9FCF7"/>
<path transform="translate(244,779)" d="m0 0h10l4 4-1 6h-11l-4-3v-5h2z" fill="#69A3BC"/>
<path transform="translate(904,369)" d="m0 0h4l1 11-2 3h-2l-6 1-4-4 1-5 6-2z" fill="#F1F8F4"/>
<path transform="translate(682,700)" d="m0 0h12l-3 5-8 7h-2l-2-2-6 3-2 4-1-3 7-8z" fill="#467C9E"/>
<path transform="translate(186,347)" d="m0 0 6 2v7l-2 5h-7l-4-3-2 2-1-3 1-2 4 1v-6z" fill="#F9FCF7"/>
<path transform="translate(286,834)" d="m0 0h5l4 5-1 5-3 3-7-1-2-3 1-7z" fill="#FBAC5E"/>
<path transform="translate(590,197)" d="m0 0h1v13h-2l-1 5-4 12-7 2-1 2-5-2-2-4 2-2 4 3 3-1 4-3 7-24z" fill="#F9FCF7"/>
<path transform="translate(247,533)" d="m0 0h48l9 11 5 3v2h2v2l-6-2-4-2-7-8-3-4-43-1v7h-1z" fill="#4D88A6"/>
<path transform="translate(181,696)" d="m0 0h2v5h2l3 4h6l5-2v4l-5 3-4 1 2 2-1 4-6-1-1-2 2-1-2-4v-3l-5-3z" fill="#F9FCF7"/>
<path transform="translate(227,240)" d="m0 0h5l-2 4h2v2l3-1 3-3h2v5h-3v4l6 3 5 2-2 5-4-2-14-14-9-2h-3l1-2z" fill="#F9FCF7"/>
<path transform="translate(701,600)" d="m0 0 1 3h3l2-3v24h-5l-1-2z" fill="#4D8AA7"/>
<path transform="translate(711,471)" d="m0 0 4 1v23h-1l-1-7-2 2-2-1-1 2-4-3 1-8h1v8h2v-16z" fill="#4982A3"/>
<path transform="translate(842,478)" d="m0 0h3l1 5 1 3-5 6h-2l-1 2-1-1h-24v-2l-7-1v-3l3 2h29l3-1v-8l-2-1z" fill="#DCEDEE"/>
<path transform="translate(592,178)" d="m0 0 6 5 3 1 1-2 3-1 1-2h2v3h-2l-2 11-6-4h-2v2l-5 3z" fill="#F3F9F5"/>
<path transform="translate(891,583)" d="m0 0h6l3 2v6l-3 4h-7v-2h-2v-7z" fill="#5E9CB7"/>
<path transform="translate(550,207)" d="m0 0h7l1 1v8l-3 4h-7l-1-1v-7z" fill="#5E9CB7"/>
<path transform="translate(860,504)" d="m0 0h7l3 5-2 5-3 2-6-1-2-3 1-7z" fill="#132841"/>
<path transform="translate(422,453)" d="m0 0 7 5v2l6 2 4 4-4 1-6-1-5 1-1-2-2 3-1-12z" fill="#4880A1"/>
<path transform="translate(719,278)" d="m0 0 5 1 4 2 2-1-2 5v5l-4-4-7 1-2 4-3 4 1 4 2 3-6-2-1-1v-7l5-1v-5l7-3v-2h-2z" fill="#F1F8F4"/>
<path transform="translate(115,429)" d="m0 0h2l2 5 4 1 1 3-6 5-1 3-4-2-3-5v-3l4-2z" fill="#5B9AB5"/>
<path transform="translate(474,829)" d="m0 0 2 2v4h-3l-2 4-3 1-1 4-14 1-1-3-7 1-2-6 8 3h11l8-3z" fill="#F7FBF6"/>
<path transform="translate(844,726)" d="m0 0h6l3 3v6l-4 3-6-1-2-3 1-6z" fill="#FBAC5E"/>
<path transform="translate(577,890)" d="m0 0 8 1 1 1v6l-4 4-6-1-2-3 1-7z" fill="#5899B4"/>
<path transform="translate(700,223)" d="m0 0h2l-1 3-2 1v5l2 1v3l-5 1h-3l-1 2h-2l-1 4-5 2 2-4 10-14zm-17 22 1 3-7 8-1-2z" fill="#EEF6F3"/>
<path transform="translate(736,727)" d="m0 0 3 1v4l-3 2 1 4 4 2 1 5 5 2 3 3v2l2 1v2h-2l-5-6-8-7-4-3-1-3-4-3v-2h2v-2z" fill="#F3F9F5"/>
<path transform="translate(548,816)" d="m0 0 9 1 2 7v5l3 1-1 2-2-1 2 9v8l-2 3-3-28h-8l-2 1 1-5 3-2z" fill="#EBF4F2"/>
<path transform="translate(822,397)" d="m0 0h2v2h-2v2l-5 2 4 1v2h-3v2h-9v-2h-2l-3 3-4 1-5-1 3-2z" fill="#F0F8F4"/>
<path transform="translate(508,826)" d="m0 0h4v2l3 1v6l-3 3-4 1-3-1-1-3v-8z" fill="#68A2BB"/>
<path transform="translate(864,702)" d="m0 0 6 2 1 7-3 3-7-1-2-2v-6z" fill="#5797B3"/>
<path transform="translate(151,504)" d="m0 0h7l3 4-1 5-5 3-5-2-1-1v-7z" fill="#122740"/>
<path transform="translate(213,794)" d="m0 0 3 1v2h-3l1 5-4 4-6 3-1 4-8-1 2-4 5-2-1-5 8 1 2-2z" fill="#F9FCF7"/>
<path transform="translate(886,642)" d="m0 0h2v5l-1 1h-6-1l-5 1-3 2-11 1-1-4-4-3 6 1h12l9-3z" fill="#F9FCF7"/>
<path transform="translate(627,869)" d="m0 0 7 1 2 5v-5h3l2 2-1 4-8 4h-4v-2h-2l-1-3z" fill="#F9FCF7"/>
<path transform="translate(632,744)" d="m0 0 2 1-2 5-28 14-7 2v-3l5-2 16-8 13-8z" fill="#386589"/>
<path transform="translate(813,658)" d="m0 0 3 1 3 5 4 3-5 1-2 6h-3l-3-5-3-3 5-6z" fill="#172D47"/>
<path transform="translate(301,183)" d="m0 0h6l4 2-2 7h2l-1 3-5-1-5-3-3-5z" fill="#E8F4F2"/>
<path transform="translate(281,649)" d="m0 0h92l1 7-4-3v-3l-89 1z" fill="#558FAB"/>
<path transform="translate(568,419)" d="m0 0h16l3 3-2 8h-2l-1-4-3 1-4-3h-3z" fill="#518FAC"/>
<path transform="translate(680,396)" d="m0 0h17l2 3v3h-19z" fill="#335B7E"/>
<path transform="translate(894,520)" d="m0 0 5 1 7-1v4l-4 1 2 1-1 5-12-3 2-2-4-1 1-4z" fill="#F8FCF6"/>
<path transform="translate(896,415)" d="m0 0 3 1v2l-4 3h-10l-1 1h-17l-3-3v-1h31z" fill="#F9FDF7"/>
<path transform="translate(492,195)" d="m0 0h3l1 3 5 1 1 2-7 1 1 5 4 2-3 3h-2l-1 4-4 2h-7l1-2h5l2-2z" fill="#E1EEEE"/>
<path transform="translate(870,704)" d="m0 0 3 1 2 3v4l-5 1zm-13 1h2l2 7 7 1 2 1-1 6h-6l-3-6-4-2-1-4z" fill="#F9FCF7"/>
<path transform="translate(706,568)" d="m0 0h1v24l-1 3h-3l-1-4v-18h3z" fill="#BBD2DC"/>
<path transform="translate(879,342)" d="m0 0 5 1-1 5 1 4h-15l-1-5 2-2 4 3 1-3h2v-2z" fill="#F9FCF7"/>
<path transform="translate(550,165)" d="m0 0h3l2 5-4 2-2-2-4 2-1 3h-2v6l-1 4v7l-3 1-2-6 5-14 4-5z" fill="#F9FCF8"/>
<path transform="translate(553,755)" d="m0 0 1 2 3-1 1 4-7 5h-2v4l-5 5-6 2 1-4h2l1-3h2l2-5 3-4h2z" fill="#68A4BE"/>
<path transform="translate(183,598)" d="m0 0 3 2-1 4-9 2h-12l-4-2v-2l16-1z" fill="#F9FDF7"/>
<path transform="translate(127,500)" d="m0 0h2l4 4v2l3 1v2l-5 2-3 4h-2l-3-6-2-2z" fill="#5997B3"/>
<path transform="translate(569,113)" d="m0 0h6l4 4-1 6-1 1h-7l-2-1v-8z" fill="#5A99B4"/>
<path transform="translate(545,732)" d="m0 0h6v3l3-1-1 6-3 4-2-1 2-4-4 5-2 3-2-5v-8z" fill="#63A1BC"/>
<path transform="translate(117,499)" d="m0 0 4 2-1 3 5-1-3 4 4 6v2l3-1v3h-5l-3-5-3 1-2-1v-8l-1-4z" fill="#F0F6F3"/>
<path transform="translate(184,636)" d="m0 0 7 1 2 3-1 5-2 2-7-1-2-3 1-5z" fill="#142942"/>
<path transform="translate(711,419)" d="m0 0h3l4 16-1 3-2 2-2-4-5-1-3-2v-2l6-1z" fill="#A8D6E1"/>
<path transform="translate(892,455)" d="m0 0m-4 1 6 1-3 3h-2v2h-2v7l-2 5h-2v2l-5 3h-11v-1l7-2 7-3 2-2 1-10z" fill="#E2F0EF"/>
<path transform="translate(720,744)" d="m0 0 7 5 6 7 8 7 6 5-2 1-6-3-8-6-3-3-8-10z" fill="#E8F3F1"/>
<path transform="translate(356,604)" d="m0 0h8l2 16v6l-2-1-5-12z" fill="#32587B"/>
<path transform="translate(110,468)" d="m0 0h5l3 4-1 5-2 2h-6l-2-2v-6z" fill="#FBAC5E"/>
<path transform="translate(200,320)" d="m0 0 5 1 6 5-2 1v3l-4 1h-3l-4-2-1-5z" fill="#F9FDF7"/>
<path transform="translate(577,820)" d="m0 0 1 2h2l3 10 4-2v6l-3 1 1 14-2 2-2-11-4-19z" fill="#E9F3F1"/>
<path transform="translate(717,785)" d="m0 0 7 7v3h2l2 6-4-2-2-3h-4-2v2h-2v-2l-2-1v-7l6 3-2-4z" fill="#E9F4F2"/>
<path transform="translate(401,730)" d="m0 0 5 2 2-1 7 11-1 2-5-2-6-4-4-5 1-2z" fill="#9ACADA"/>
<path transform="translate(175,294)" d="m0 0h6l4 6-5 3-2 5-2-1v-2h-2l-1-8z" fill="#7EB0C5"/>
<path transform="translate(336,225)" d="m0 0 13 13v2l5 1-3 3-1-3-4-1v2l2 1h-4l-1-4h-2l-4-7-2-6z" fill="#F8FCF7"/>
<path transform="translate(151,457)" d="m0 0 3 1v2l-2 2-4 2v8h-4l-2-5 1-5 2-4z" fill="#FBFCFB"/>
<path transform="translate(682,813)" d="m0 0 3 1v2h6l-1 5 1 3-3 3-1-2-4-1-3-6v-3h2z" fill="#FAFCF9"/>
<path transform="translate(741,419)" d="m0 0h7l4 10v7l-2 2-2-5h-2l-4-12zm9 13 1 2z" fill="#366084"/>
<path transform="translate(193,267)" d="m0 0h5l2 2v6l-4 3-5-2-2-5z" fill="#FBAC5E"/>
<path transform="translate(754,692)" d="m0 0h5l3 4-1 5-2 2h-5l-2-2v-7z" fill="#FBAC5E"/>
<path transform="translate(507,206)" d="m0 0 5 1 2 3-1 5-2 2h-5l-3-4 2-6z" fill="#FBAC5E"/>
<path transform="translate(672,188)" d="m0 0 6 2v2l-3 2-2 5-10 17h-3l3-6h2v-5l7-12z" fill="#E9F5F2"/>
<path transform="translate(550,313)" d="m0 0h3v2l4 2 2 3v3l-4 2-6-2-1 2 1-5v-1l-3 2 2-7z" fill="#5290AE"/>
<path transform="translate(703,419)" d="m0 0h8l1 2v9h-6l-3-5z" fill="#4D88A8"/>
<path transform="translate(120,372)" d="m0 0h6v2h2l1 3-1 3-4 2-5-1-2-3 1-4z" fill="#5394B1"/>
<path transform="translate(530,894)" d="m0 0h2l2 3h6l3-2-5 10-2 1-9-5v-5l2 1z" fill="#E6F2F1"/>
<path transform="translate(421,868)" d="m0 0 6 2 5 3-1 6-6 1-1-4-4-3-3 2-1-2z" fill="#F3F8F4"/>
<path transform="translate(717,274)" d="m0 0 2 3-1 4h2v2l3 1-8 2-8-1 1-4 5-3z" fill="#F8FAF9"/>
<path transform="translate(215,263)" d="m0 0 4 1 2 4-8 2-4 3-1 4h-2v-11l2-2v2z" fill="#F9FDF7"/>
<path transform="translate(374,180)" d="m0 0 5 1 2 7 5-1 1 6-4 1-1 2h2v3l-3-1-7-15z" fill="#F8FAF3"/>
<path transform="translate(290,760)" d="m0 0 4 3-3 5-5 4-6 2 1-5 2-2v-4z" fill="#FCFCFC"/>
<path transform="translate(776,698)" d="m0 0m-2 1 7 2 1 2-5-1-3 1-1 2v6l8 7-1 2-4-1v-2l-6-1-1-13 3-3z" fill="#FAFCF8"/>
<path transform="translate(724,508)" d="m0 0h8v6l-1 2h5v1h-17l4-1v-7z" fill="#5191AE"/>
<path transform="translate(154,440)" d="m0 0h5l2 6-1 2-7-2h-9l-6 1 1-5h10z" fill="#F0F8F4"/>
<path transform="translate(413,757)" d="m0 0h2l1 2 8 4v4l-8-1-9-4 3-3z" fill="#F1F5F6"/>
<path transform="translate(791,702)" d="m0 0h5l1 5-2 4 4 4-1 4-12-12 1-3 1 2h3z" fill="#F9FCF8"/>
<path transform="translate(872,666)" d="m0 0 1 2h2l3 4v2l-5 5-2 1-5-7z" fill="#FBAC5E"/>
<path transform="translate(706,549)" d="m0 0h1v19l-1 8-1-3h-3v-14l3-2v-7z" fill="#F9FCF8"/>
<path transform="translate(191,402)" d="m0 0h8l-2 6 8 2 4-2-2 5v3l-8-5-5-2-6-1 2-2-2-2z" fill="#F3F9F5"/>
<path transform="translate(768,305)" d="m0 0 5 2 5 1 5 2-12 8-2 1-1-3 3-1v-3l-3-1z" fill="#F9FCF7"/>
<path transform="translate(456,895)" d="m0 0 6 1 1 6-3 3h-5l-2-2v-6z" fill="#132841"/>
<path transform="translate(736,819)" d="m0 0 7 2 2 5h3l1 5h-4l-1-3-5 1-3-3z" fill="#CCE4E7"/>
<path transform="translate(697,396)" d="m0 0h14l1 1v5h-13z" fill="#578DAA"/>
<path transform="translate(331,175)" d="m0 0 5 4 2 1-2 4-5 4-2-4h-3l-1-4 5-2z" fill="#5C9BB5"/>
<path transform="translate(338,805)" d="m0 0 2 2-2 4 1 6-2 2h-4l-1 2h-2l-1 4-2 4-3 1 2-5 11-19z" fill="#F8FCF7"/>
<path transform="translate(787,785)" d="m0 0 3 2 3-2 4 5-1 5-6 2-2-1-1-6-2-4z" fill="#EBF5F2"/>
<path transform="translate(442,715)" d="m0 0 5 5 3 6-4 3-6-2-2-5 3-3z" fill="#A3CEDD"/>
<path transform="translate(232,686)" d="m0 0 4 1-10 6 2 4-3 3-3-5h-3v3l-6 1 1-5 10-4z" fill="#F9FCF7"/>
<path transform="translate(409,169)" d="m0 0 3 1 4 11v4h2l2 3-1 8-4 3 1-9-7-19zm3 30 3 1-1 1h-6z" fill="#DCEDEE"/>
<path transform="translate(488,771)" d="m0 0 3 1 8 10v2l-10-2-4-6 1-2h2z" fill="#A3D0DE"/>
<path transform="translate(680,700)" d="m0 0h2l-2 4-8 8-2 4h-2l-1 3h-2v2h-2v2l-4 2-2-2 4-5h2v-2l6-4 9-9z" fill="#4E8BAA"/>
<path transform="translate(206,478)" d="m0 0 4 1 2 1v8l-4 5h-14v-2h-2l1-2h13l3-2v-6z" fill="#E6F3F1"/>
<path transform="translate(384,145)" d="m0 0h1l4 13 2 5v3h2l4 10v3l-4-2-3-10-2-2-1-3-3-10zm10 34v3z" fill="#EBF5F2"/>
<path transform="translate(714,419)" d="m0 0h27l2 2-1 4h-2l-1 7-3-1-1-11h-21z" fill="#5A9AB5"/>
<path transform="translate(867,364)" d="m0 0 6 1 1 1v9l-3 5-4 4-6 1v-2l-4-1 14-7 1-7z" fill="#E1EFEE"/>
<path transform="translate(346,145)" d="m0 0 10 2 4 4v3l-2-1-1-1-1 7h-1l-1-9-9-1-3 4v6l-3-4 2-7z" fill="#FAFCF9"/>
<path transform="translate(449,726)" d="m0 0 5 2 5 3v2l2 2-3 3-4-2-4-1 1-6h-2l-1 4-1-3z" fill="#A8D5E1"/>
<path transform="translate(174,362)" d="m0 0 4 1 6 2 1 4-5 1v2l2 1-5 1v-3l-3-3z" fill="#F9FDF7"/>
<path transform="translate(595,440)" d="m0 0h3v10l-2 12h-2l-2-8v-6l2-1z" fill="#68A5BF"/>
<path transform="translate(826,318)" d="m0 0 5 2 1 1v5l-2 2h-5l-3-3 1-5z" fill="#5595B1"/>
<path transform="translate(815,750)" d="m0 0 4 1 5 1v1l-7 1-7 8-3 3v-2l-2-1v-2l3-2 3-6z" fill="#F9FCF7"/>
<path transform="translate(681,225)" d="m0 0h2v2h-2l-2 5-7 9h-2v3h-2l-1 3-1-5 3-3 1-3 5-5z" fill="#E2F0EF"/>
<path transform="translate(444,880)" d="m0 0h2v4l2 1h-3l-2 6-4 3-6 1-6-2v-1l8-1 6-5z" fill="#F9FCF8"/>
<path transform="translate(529,763)" d="m0 0 3 3 4-1-2 3h-2l-2 5-4 1-2 5-3-1 2-6z" fill="#69A5C0"/>
<path transform="translate(717,469)" d="m0 0 2 3v36h-1l-1-12h-1v-24z" fill="#4880A2"/>
<path transform="translate(885,557)" d="m0 0h5l2 3-1 5-5 2-4-4 1-4z" fill="#FBAC5E"/>
<path transform="translate(294,313)" d="m0 0 5 3 2 1-1 4h-3v2l-3 1-2-3-5-1 5-6z" fill="#F8FCF6"/>
<path transform="translate(561,230)" d="m0 0 3 4-2 2 1 3-13-1-4-2h6v-2h2v-2z" fill="#E8F1EF"/>
<path transform="translate(559,179)" d="m0 0 5 1 2 4-1 3-3 2-5-1-1-6z" fill="#FBAC5E"/>
<path transform="translate(633,838)" d="m0 0 3 4v9l-3 3-9 3-3-3 1-3 9 1 2-7-1-5z" fill="#F9FCF7"/>
<path transform="translate(417,675)" d="m0 0 11 3 7 2v2h-17z" fill="#376386"/>
<path transform="translate(875,620)" d="m0 0h2l1 2v7l-5 6-7 1 1-3 5-1 1-7-1-4z" fill="#F8FCF7"/>
<path transform="translate(186,435)" d="m0 0 2 1zm-3 0 3 1v2l-4 3 1 7 7 8h-3l-7-5-2-12 2-3z" fill="#DDECEC"/>
<path transform="translate(156,306)" d="m0 0 4 1 1 6-3 3-5-1-1-1v-6z" fill="#FBAC5E"/>
<path transform="translate(792,250)" d="m0 0 1 2 3 1 1 4-4 3-9-4-3-2z" fill="#F7FBF7"/>
<path transform="translate(721,816)" d="m0 0 4 4 2 9-3 9-4-1 3-4-1-7-2-4v-5z" fill="#F9FCF7"/>
<path transform="translate(466,741)" d="m0 0h5l5 3 1 4-2 4-3-1-1-3-7-2-1-2z" fill="#A5D2DF"/>
<path transform="translate(812,324)" d="m0 0h4v4l5-1 2-2 2 4-1 4-4 1-5-2v-2l-3-2z" fill="#F5FBF6"/>
<path transform="translate(696,185)" d="m0 0 1 3-5 11-4 4-3 4-2-2 6-11h2l2-6z" fill="#EEF7F3"/>
<path transform="translate(205,701)" d="m0 0 4 1-1 4 4 1v4h6l-5 4-3-1-2-2-1 2-2-2h2v-5l-3-1z" fill="#EDF6F3"/>
<path transform="translate(757,571)" d="m0 0h4l-1 10h-2l-1 2-2-3-1 2v-2h-2v-5z" fill="#2B4B6B"/>
<path transform="translate(896,454)" d="m0 0 4 1 8 4 2 5-1 11-4 2 1-4v-10l-6-5-5-1z" fill="#F2F8F4"/>
<path transform="translate(574,423)" d="m0 0 6 3h2l1 4h2l1-6h1v13l1 2h-3l-8-11-3-3z" fill="#66A3BD"/>
<path transform="translate(776,744)" d="m0 0 4 2v5l-6 1v-2l-3 2-5-1 1-4 8-2z" fill="#F5FAF5"/>
<path transform="translate(102,433)" d="m0 0 4 2 6-1-2 4 3 3-1 3-6-4h-4v2h-2v-8z" fill="#E9F3F1"/>
<path transform="translate(234,402)" d="m0 0 2 4-1 2 2 1-3 2v2h-9l-2-2-4-1v-3l8 2 4-2z" fill="#F9FCF7"/>
<path transform="translate(563,177)" d="m0 0h3 2l2 12-1 4-7-3 1-3h2l-1-6z" fill="#F9FCF7"/>
<path transform="translate(500,112)" d="m0 0 5 1v4h8l1 2h-7l-2 2-2 4-1-4-1 5h-1v-7l-1-6z" fill="#EBF4F1"/>
<path transform="translate(406,755)" d="m0 0h8l9 5 5 2v3h-2v-3l-7-1-4-2v-2l-3 3-6 1-1-5z" fill="#F9FCF7"/>
<path transform="translate(273,606)" d="m0 0h3l6 17 3 7h-10l2-3 2-1v-3l-1-7h-2l-2-4-1-1z" fill="#F9FCF7"/>
<path transform="translate(762,467)" d="m0 0h1v7l1 5-2 4-1-6h-3l2 5-1 12h-1l-1-6v-12l3-1z" fill="#2B4A6A"/>
<path transform="translate(384,249)" d="m0 0 5 1 4 1 4-2h4v3l-6 3-4 1-7-3z" fill="#F9FDF7"/>
<path transform="translate(474,168)" d="m0 0 4 1 2 11v14h-1l-1-10h-3v-8z" fill="#E8F0F0"/>
<path transform="translate(435,707)" d="m0 0 3 3 1 3 1-3 2 3v7l-4 2-5-9v-2l2-1z" fill="#AEDCE5"/>
<path transform="translate(858,364)" d="m0 0 4 2-11 5-15 7h-2l1-3 8-4 2-2 9-2z" fill="#DFEFEF"/>
<path transform="translate(264,272)" d="m0 0 5 1 3 3v3h-4l1 3-5-1-4-5 4-1z" fill="#F9FCF7"/>
<path transform="translate(333,784)" d="m0 0h2v5l-10 16h-3l1-3 2-2 2-5v-1l1-4 3-1z" fill="#F9FCF7"/>
<path transform="translate(244,692)" d="m0 0 4 3-22 12v-3l1-2h2v-2l9-2 5-4z" fill="#DAECED"/>
<path transform="translate(566,317)" d="m0 0 4 1 5 7v1h-9l-3-1-1-3 4-2z" fill="#86BCD0"/>
<path transform="translate(506,184)" d="m0 0h5l2 3-1 5-5 1-3-2 1-6z" fill="#FBAC5E"/>
<path transform="translate(390,890)" d="m0 0 3 1v3l3 1-2 4-4 3-4-5 2-4z" fill="#172E49"/>
<path transform="translate(584,865)" d="m0 0h1l1 7-3 9h-4l-5-1 3-1 1-3h2l2-4z" fill="#E0EFEF"/>
<path transform="translate(623,811)" d="m0 0 4 3v2h4l-2 8 1 2h-2l-1 2-5-14z" fill="#F9FAF2"/>
<path transform="translate(200,688)" d="m0 0h4l4 6h-3v2h-2v6l-3 1-2-7 1-2 3-2-2-1z" fill="#F9FCF7"/>
<path transform="translate(897,374)" d="m0 0h5l2 4v4l-6 1-3-3 1-5z" fill="#609DB7"/>
<path transform="translate(608,812)" d="m0 0h2l5 15v3h-2l-2-6-1 2h-2l-1-5 1-2-2-1h2l-1-5z" fill="#F9FCF8"/>
<path transform="translate(744,788)" d="m0 0 5 1v5l-2 2 1 5-1 3-6 1 3-1v-7l-1-4-2-1 1-2h2z" fill="#F6FAF5"/>
<path transform="translate(572,746)" d="m0 0h3l-1 5-10 9-3-1 2-4h2v-2l5-5z" fill="#3F7193"/>
<path transform="translate(295,268)" d="m0 0h4l4 4 3 1 4 8-2 2-10-10v-3l-3-1z" fill="#E9F5F3"/>
<path transform="translate(537,130)" d="m0 0h6v8l-5 1-3-2v-5z" fill="#5999B4"/>
<path transform="translate(514,827)" d="m0 0h2l3 10 3 5-5 2-2-5-3-2 2-2z" fill="#F9FCF7"/>
<path transform="translate(214,657)" d="m0 0 14 2v1l-9 1 1 4-4 1-3-2z" fill="#EAF3F1"/>
<path transform="translate(738,506)" d="m0 0 2 2-1 5h6l1 3h-15l1-3 4-2v-2l-2-1z" fill="#6EAAC3"/>
<path transform="translate(819,375)" d="m0 0h5l2 4v3l-8 4h-2l2-4 1-1-3-5z" fill="#EDF6F3"/>
<path transform="translate(615,114)" d="m0 0 5 2 2 5-3 3-5-1-2-6 3-1z" fill="#F9FDF7"/>
<path transform="translate(205,793)" d="m0 0 5 1 1 5-3 3-5-1-1-4z" fill="#FBAC5E"/>
<path transform="translate(611,728)" d="m0 0 5 1-1 3-2 4-4 1-1 3-4-1 1-3h2l2-5z" fill="#2F5172"/>
<path transform="translate(200,500)" d="m0 0h6l-2 4h-29v-1l15-1v-1z" fill="#DAE6E9"/>
<path transform="translate(893,484)" d="m0 0 3 1-8 4 1-3zm-9 5 4 1-3 1v2l-9 1-1-1-13-1v-1l19-1z" fill="#D1E4E8"/>
<path transform="translate(348,420)" d="m0 0h8l-1 7h5v1h-12z" fill="#AAD9E3"/>
<path transform="translate(186,350)" d="m0 0 5 1 1 5-2 3-6-1v-6z" fill="#FBAC5E"/>
<path transform="translate(489,259)" d="m0 0 6 1-4 2-5 3h-2v2l-4 2v-2l-4-1 4-3z" fill="#EDF4F2"/>
<path transform="translate(394,658)" d="m0 0 1 3h2l4 21-4-4-3-11 1-2z" fill="#315476"/>
<path transform="translate(680,419)" d="m0 0h13l3 6v2h-7l3-1-4-2v-3h-8z" fill="#335B7E"/>
<path transform="translate(294,238)" d="m0 0h2v3l2 1-5 6-7 1v-4l6-2v-2h2z" fill="#F8FCF6"/>
<path transform="translate(643,737)" d="m0 0 2 1zm-1 1 1 2h2v3l-10 5h-3l2-5z" fill="#32597C"/>
<path transform="translate(436,719)" d="m0 0 3 4 10 17 2 3-4-1-2-3v-3h-2l-3-6v-2h-2l-2-5-2-1z" fill="#F9FCF7"/>
<path transform="translate(139,489)" d="m0 0 5 1-1 4h-11l-3-3 1-1z" fill="#F9FDF7"/>
<path transform="translate(596,464)" d="m0 0 4 1-1 14-2 1-2-8v-7z" fill="#2F5071"/>
<path transform="translate(373,841)" d="m0 0 2 4h-2l1 5-5 6-4 8 2 1-5 2 3-9z" fill="#DFEDED"/>
<path transform="translate(254,684)" d="m0 0h2l1 4h4l3 4v6l-2-4-4-3-5 1-5 2 1-2h2l1-7z" fill="#E4F0EF"/>
<path transform="translate(200,656)" d="m0 0 5 2 2 5v5l-2-4-3-2h-12v-3l9 1z" fill="#DAEAEC"/>
<path transform="translate(126,600)" d="m0 0 10 2-2 4-4 1-7-3 1-3z" fill="#F8FCF6"/>
<path transform="translate(181,453)" d="m0 0 6 2 9 5-3 3-1-2h-2v-2l-4-1-1 2-4-1-2-4h2z" fill="#F1F8F4"/>
<path transform="translate(861,395)" d="m0 0 22 1 3 3h-25l-2 1-1-3h3z" fill="#F4F9F5"/>
<path transform="translate(203,341)" d="m0 0h9l-1 8-6-1-2-2z" fill="#437898"/>
<path transform="translate(548,320)" d="m0 0 1 3h5 2 3l1-3 1 6h-19l5-5z" fill="#5596B2"/>
<path transform="translate(628,293)" d="m0 0 9 2 10 7 3 3-1 3v-2l-4-2-17-10z" fill="#528FAD"/>
<path transform="translate(714,203)" d="m0 0 2 1 1 5-8 5-1 3h-3l-1 3-2-1 9-12z" fill="#EAF4F2"/>
<path transform="translate(671,176)" d="m0 0 4 1 5 2v2h2l-2 7-1-4-4-1v-3h-6l2-1z" fill="#F4FAF5"/>
<path transform="translate(671,143)" d="m0 0 4 1 1 1v5l-2 2-5-1-1-5z" fill="#5496B2"/>
<path transform="translate(582,806)" d="m0 0h14v3l-5 1h-3-3v6h-2z" fill="#F8FCF6"/>
<path transform="translate(653,783)" d="m0 0h5l-5 4 1 8h-6l-2-7h2l2-4 2 1z" fill="#F8FCF6"/>
<path transform="translate(275,733)" d="m0 0h2l1 3-3 4-4-1-3 1h-8l-1-3h8z" fill="#F9FCF8"/>
<path transform="translate(753,714)" d="m0 0 4 2 2 4v3l6 1 1 5-1-2-5-2-3-2v-2l-5-2-2-3z" fill="#E2F0F0"/>
<path transform="translate(120,514)" d="m0 0 2 4-2 5-7-1-2-2 3-5 6 1z" fill="#F9FCF7"/>
<path transform="translate(880,515)" d="m0 0 4 1-1 5-3 1h-7l-1-3z" fill="#F9FDF7"/>
<path transform="translate(161,448)" d="m0 0h5l1 3 4 2 2 5 1 6h-3l-4-10v-2l-4-1v-2z" fill="#E6F2F0"/>
<path transform="translate(499,201)" d="m0 0h5v2l2 1-4 3-1 3-2-1-4-1v-6z" fill="#FCFCFC"/>
<path transform="translate(710,802)" d="m0 0 4 4 3 1v2l1-2h2l1 3-2 2-1 4h-2l-6-9z" fill="#F9FCF8"/>
<path transform="translate(474,771)" d="m0 0 4 1 10 7 2 2-6-1-13-6z" fill="#E8F2F0"/>
<path transform="translate(184,606)" d="m0 0 8 1h18l7 1v1h-40l4-2z" fill="#F9FDF7"/>
<path transform="translate(672,127)" d="m0 0 5 1v4l-4 1-10-2 1-3z" fill="#F9FDF7"/>
<path transform="translate(347,869)" d="m0 0h1l2 6 7 1 2-5 2-2 1 6-1 3-6 1-7-3-1-1z" fill="#CDE4E8"/>
<path transform="translate(482,809)" d="m0 0h16l2 2-6 2-11-1z" fill="#F9FDF7"/>
<path transform="translate(264,776)" d="m0 0 7 1 2 2-4 4-5 1-1-3z" fill="#F9FDF7"/>
<path transform="translate(770,667)" d="m0 0h7l5 3 2 5-5-2-6-3-7 2v-4z" fill="#E1F0EF"/>
<path transform="translate(162,482)" d="m0 0h9l17 6v1h-7l-10-2 2-1v-2h-13z" fill="#C8E2E7"/>
<path transform="translate(540,310)" d="m0 0h4l1 3 2 2-3 1v7l-3 1-2-7z" fill="#9DCDDB"/>
<path transform="translate(778,247)" d="m0 0 2 1-5 6-3 7h-6l-3 2 2-4 8-7z" fill="#FAFCF9"/>
<path transform="translate(597,483)" d="m0 0h1l1 15-2-1-1 5-3-2 2-16z" fill="#305476"/>
<path transform="translate(117,372)" d="m0 0 2 2-1 4 2 3 8-1-2 4-5 1-3-3-5-2v-4h2l1-3z" fill="#E1EDED"/>
<path transform="translate(345,793)" d="m0 0h3l-1 3-1 1v4h2l1-2v4l-7 1-2-1 2-6z" fill="#F9FCF7"/>
<path transform="translate(284,715)" d="m0 0 2 4-1 8-2 4-5 1 2-5 2-8z" fill="#F9F9F1"/>
<path transform="translate(198,719)" d="m0 0m-2 1 4 2-6 3h-3v2l-5 2v7l-2-3 1-7 8-4z" fill="#E8F3F1"/>
<path transform="translate(208,538)" d="m0 0 2 1v2l-2 2v2l-7 1-1-3h-15v-1l20-1z" fill="#F9FCF7"/>
<path transform="translate(560,264)" d="m0 0 13 2 6 2v2h-11l-8-5z" fill="#93C3D3"/>
<path transform="translate(452,264)" d="m0 0 4 1-11 8-2-2 1-2h-3v-2z" fill="#E1ECEE"/>
<path transform="translate(744,237)" d="m0 0 6 2-1 5-3 2-2 4-4 2 1-5 3-3z" fill="#F7FCF6"/>
<path transform="translate(303,184)" d="m0 0 5 1v6l-7 1-1-1v-5z" fill="#5F9DB7"/>
<path transform="translate(858,603)" d="m0 0 4 1-9 6-5 6-1-3 4-7 2-2z" fill="#F9FCF7"/>
<path transform="translate(145,456)" d="m0 0h9l5 6v5l-3-1-3-8-10 1v-2zm-4 3 2 1-2 1z" fill="#DAEBEC"/>
<path transform="translate(660,241)" d="m0 0h2l-1 4-2 3-1 4h-3v2h-9l-1-3h7l4-2 1-4h2z" fill="#E1EEEE"/>
<path transform="translate(664,844)" d="m0 0 1 2 6 2v4h-3l-1 4-4-7z" fill="#F9FCF7"/>
<path transform="translate(314,797)" d="m0 0h3l1 4-6 8-3-2 2-5z" fill="#F7FBF6"/>
<path transform="translate(163,727)" d="m0 0 5 1 1 5-2 2h-4v-2h-2l1-5z" fill="#CA7469"/>
<path transform="translate(739,249)" d="m0 0 1 4-4 1v2l-8 7v-3zm-14 14 2 1-2 6-3 1v-4z" fill="#FAFCF8"/>
<path transform="translate(323,239)" d="m0 0h3l1 3-3 4-2 5-4 1v-3l2-5h2z" fill="#FBFCFB"/>
<path transform="translate(455,872)" d="m0 0 1 2h8l-2 4-1-2-10 1-2 1-2-1 2-4z" fill="#F9FCF7"/>
<path transform="translate(845,616)" d="m0 0 3 2-1 3h-2v9l-3 1-1-9 1-4h3z" fill="#F9FCF7"/>
<path transform="translate(892,486)" d="m0 0h2v2l4 1h-2v3l-6 2-3-2 2-4z" fill="#F9FCF7"/>
<path transform="translate(764,262)" d="m0 0 4 4v3l-9 2h-3l6-7z" fill="#F9FDF7"/>
<path transform="translate(224,224)" d="m0 0h8l2 6-4 2-5-5z" fill="#F9FDF7"/>
<path transform="translate(612,756)" d="m0 0 4 1-4 3-13 6-2-1v-2l5-2z" fill="#376386"/>
<path transform="translate(603,741)" d="m0 0 1 2 2 1-8 7-4 3-3-1 8-8z" fill="#376387"/>
<path transform="translate(355,650)" d="m0 0h15v6l-2-1v-2h-11l-2-1z" fill="#86BCD0"/>
<path transform="translate(746,440)" d="m0 0h3l2 10v8l-3-4-1-8h-2z" fill="#5C9BB7"/>
<path transform="translate(718,371)" d="m0 0 4 4 8 12-1 3-2-1v-2h-2l-2-4v-3h-2z" fill="#386487"/>
<path transform="translate(192,375)" d="m0 0h8v2l7 1 2 7-12-7-5-2z" fill="#F9FCF7"/>
<path transform="translate(200,320)" d="m0 0 5 1 6 5-2 2h-5l-4-4z" fill="#EBF2F4"/>
<path transform="translate(514,257)" d="m0 0h6l-3 1 2 6v16l-2-1v-15l-3-1z" fill="#8ABED1"/>
<path transform="translate(604,138)" d="m0 0h2v4h2l-1 9-5 3-3-1 5-5z" fill="#F9FCF8"/>
<path transform="translate(529,128)" d="m0 0h6v2l2 1-1 1v5l2 2-9 1 3-3v-3l2-3-6-1z" fill="#E8F3F1"/>
<path transform="translate(709,752)" d="m0 0h3l2 4 3 1 3-1 1 5-1 5-5-5-6-7z" fill="#E7F3F1"/>
<path transform="translate(537,747)" d="m0 0 3 3-1 7-4 2-2-7 2-1z" fill="#599AB5"/>
<path transform="translate(712,427)" d="m0 0 3 2v7h-6l-4-3v-2l6-1z" fill="#7EB6CC"/>
<path transform="translate(852,384)" d="m0 0 2 1v2h-3v2l-5 1-3 2-6 1-1-2z" fill="#DBECED"/>
<path transform="translate(397,219)" d="m0 0 4 1-1 10-1 3-2-2-2-5 1-5z" fill="#F9FCF7"/>
<path transform="translate(324,181)" d="m0 0 2 1v2h3l3 3 2-2-1 4-4 2v-2l-5 1z" fill="#E6F2F0"/>
<path transform="translate(514,119)" d="m0 0 3 1 1 4v7l2 1-4 4h-1z" fill="#E1EDED"/>
<path transform="translate(701,791)" d="m0 0 6 2 2 2v7h-2l-6-8z" fill="#F9FCF8"/>
<path transform="translate(459,704)" d="m0 0h2l4 11-1 2-4-1-2-10z" fill="#3F7194"/>
<path transform="translate(702,591)" d="m0 0 1 4h3l1-3v8l-1 5-1-2h-3z" fill="#88BDD1"/>
<path transform="translate(549,397)" d="m0 0h9l-1 5h-10z" fill="#5191AD"/>
<path transform="translate(557,827)" d="m0 0 1 2 4 1-1 2-2-1 2 9v8l-2 3-2-17z" fill="#D6EAEC"/>
<path transform="translate(372,813)" d="m0 0 1 4-6 12h-1v-10h2v-3z" fill="#E7F2F1"/>
<path transform="translate(611,736)" d="m0 0h3l-2 4-6 4-3-2-2 3-2-1 4-5h5z" fill="#32587B"/>
<path transform="translate(214,675)" d="m0 0h6l-2 4-8 4h-3v-2h2l1-3z" fill="#F9FCF7"/>
<path transform="translate(796,391)" d="m0 0h8l-4 3-10 4h-2l2-4 2-2z" fill="#E2F0EF"/>
<path transform="translate(471,323)" d="m0 0h9l15 2v1h-20l-4-2z" fill="#64A2BD"/>
<path transform="translate(571,269)" d="m0 0 4 2 3 1 6 4-1 3v-2h-3l1 2-4-2-4-3v-2l-4-2z" fill="#65A0BB"/>
<path transform="translate(558,177)" d="m0 0 4 1h-3v2h-2v8h2l1 3-5-2-2-2 1-7z" fill="#F9FCF8"/>
<path transform="translate(443,837)" d="m0 0 8 3h11l5-1-1 2-3 1-18 1z" fill="#CDE4E8"/>
<path transform="translate(450,670)" d="m0 0 7 1 3 5-4 1-6-2z" fill="#FAFCF9"/>
<path transform="translate(431,583)" d="m0 0h8l-3 1v2h4l2 4-2 1-3-1-4-4-5 2 1-4z" fill="#F1F6F3"/>
<path transform="translate(455,295)" d="m0 0h2l-2 6-5 8-3-2 1-3 3-3 1-4h3z" fill="#F9FCF7"/>
<path transform="translate(433,280)" d="m0 0 3 1-7 8h-3l-1-5 5-3z" fill="#C2D9E1"/>
<path transform="translate(474,219)" d="m0 0 4 2v2l4 1-4 3-6-1z" fill="#F9FDF7"/>
<path transform="translate(682,852)" d="m0 0 6 5 1 3-9 1-1-5z" fill="#F9FCF7"/>
<path transform="translate(364,830)" d="m0 0h2l-2 6-6 12-2-4 4-8 3-5z" fill="#DEEEEE"/>
<path transform="translate(524,824)" d="m0 0 4 2-1 2-1 13-2-1-2-12z" fill="#DDECED"/>
<path transform="translate(698,749)" d="m0 0h2v3h-2l-1 9 4 2v3l-6-4-1-3 1-7 3-1z" fill="#DDECED"/>
<path transform="translate(248,672)" d="m0 0 2 1v6l-6 5-7 2 1-4 9-3z" fill="#F9FBF4"/>
<path transform="translate(708,552)" d="m0 0h3v8h-2v2h2l1 2 4 1-5 2-2 1-1-3v-2z" fill="#3B6A8E"/>
<path transform="translate(640,317)" d="m0 0 5 5 3 4h-9l1-6-2-1h2z" fill="#85BCD0"/>
<path transform="translate(666,316)" d="m0 0 1 2 4 2 6 5v2h-5l-5-6-2-1z" fill="#376284"/>
<path transform="translate(166,316)" d="m0 0h3 4l-1 4-4 3-5-1 1-3 2 1z" fill="#F9FDF7"/>
<path transform="translate(254,309)" d="m0 0 4 1-1 5-2 5h-2l-2-6z" fill="#F9FCF7"/>
<path transform="translate(716,287)" d="m0 0v3l-4 5 1 4 2 3-6-2-1-1v-7l5-2z" fill="#D0E8EB"/>
<path transform="translate(671,273)" d="m0 0 3 1 2 3-1 4-4 1v-2l-3-1 1-4z" fill="#F9FDF7"/>
<path transform="translate(544,270)" d="m0 0 5 1 3 5v3l-7-3-2-5z" fill="#A7D5E1"/>
<path transform="translate(610,219)" d="m0 0 3 1v2l4-1 4 4-1 3h-6z" fill="#F9FCF7"/>
<path transform="translate(587,850)" d="m0 0 1 3h-2l2 11v5l-3-3-1-15z" fill="#F9FDF7"/>
<path transform="translate(569,838)" d="m0 0h1l3 16v6h-2l-2-12-1-5z" fill="#D7EAEC"/>
<path transform="translate(764,678)" d="m0 0h3l2 4-3 1-2 5-3-1 1-7h2z" fill="#F3F9F5"/>
<path transform="translate(181,649)" d="m0 0 5 1 2 6 4 1-2 2-5-2-3 1z" fill="#F9FDF7"/>
<path transform="translate(801,611)" d="m0 0 5 1 6 5 3 2-2 2-10-6-3-3z" fill="#E0EDED"/>
<path transform="translate(721,420)" d="m0 0h2l2 10-2 4-1-3-2 1-1-7 3-2z" fill="#85BBD0"/>
<path transform="translate(762,301)" d="m0 0 2 1-3 3h-2v-2zm-5 4 2 1-3 5-7 3-2 2-2-2 11-8z" fill="#D7EAEC"/>
<path transform="translate(623,198)" d="m0 0 4 2v5l-3 1v2l-3-1 1-7z" fill="#F9FDF7"/>
<path transform="translate(719,195)" d="m0 0h1v11l-5-2v-7z" fill="#F9FCF7"/>
<path transform="translate(468,112)" d="m0 0h6v3l-5 5h-5z" fill="#F9FDF7"/>
<path transform="translate(682,813)" d="m0 0 3 1v2h6l-1 4h-6l-2-4-2-1h2z" fill="#F9FDF7"/>
<path transform="translate(653,797)" d="m0 0 3 1 5 9-1 2-6-5-2-1v-5z" fill="#F6FAF6"/>
<path transform="translate(158,485)" d="m0 0 2 2-5 2-1 1h-10v-2h-2v-2h13z" fill="#F9FDF7"/>
<path transform="translate(409,353)" d="m0 0 5 3-2 5-3 3-2-3 1-6z" fill="#E2ECED"/>
<path transform="translate(626,316)" d="m0 0 4 3v3l5 2v2h-7l-5-1 4-4z" fill="#407497"/>
<path transform="translate(591,318)" d="m0 0 4 5-1 2h-11l-1-4 7-1z" fill="#5695B2"/>
<path transform="translate(674,267)" d="m0 0 4 2 1 4 5 1-1 3h-5l-5-5z" fill="#F4FAF5"/>
<path transform="translate(688,238)" d="m0 0 3 1-2 4-5 2 2-4zm-5 7 1 3-7 8-1-2z" fill="#D9ECED"/>
<path transform="translate(686,214)" d="m0 0 2 2-2 7-2 2h-3l1-6 3-2z" fill="#ECF6F3"/>
<path transform="translate(431,212)" d="m0 0h3l3 11 6 3-4 1-6-4-2-6z" fill="#FAFCF9"/>
<path transform="translate(576,888)" d="m0 0h11l2 3v5h-3l-1-4-9-2z" fill="#EEF6F3"/>
<path transform="translate(383,823)" d="m0 0h1v5l-4 4-2 7-3 1 1-5 5-11z" fill="#DBEDEE"/>
<path transform="translate(548,734)" d="m0 0 4 3-6 7-2 3-2-5 1-5 3 3 2-4z" fill="#5798B4"/>
<path transform="translate(737,540)" d="m0 0 6 1-3 2-5 1-7 1v2l-5 1 1-2h3l1-3z" fill="#3F7194"/>
<path transform="translate(812,401)" d="m0 0 3 1-8 4-3 3-4 1-5-1 3-2z" fill="#CEE6EA"/>
<path transform="translate(864,355)" d="m0 0 4 1v2l-7 2h-5v-4z" fill="#F9FDF7"/>
<path transform="translate(446,313)" d="m0 0 2 1-6 12-4-1 3-3v-5l2-2h3z" fill="#F9FCF7"/>
<path transform="translate(303,239)" d="m0 0 5 1 3 2h-4v2h-2l-1 2-4 1 2-7z" fill="#F7FBF6"/>
<path transform="translate(571,892)" d="m0 0 4 1 1 7 2 1v2l-5-2-2-1-2-5z" fill="#F2F8F4"/>
<path transform="translate(709,831)" d="m0 0 10 5v1l-7 1-5-1z" fill="#F9FCF8"/>
<path transform="translate(842,478)" d="m0 0h3l1 5 1 3-4 4-4-1 3-1v-8l-2-1z" fill="#E1F0EF"/>
<path transform="translate(879,342)" d="m0 0 5 1-1 5-4 1-2-2v-4z" fill="#CE7469"/>
<path transform="translate(869,337)" d="m0 0 3 1-1 2 3-1 2 2-3 3h-4-3v-3l2-1z" fill="#F9FCF7"/>
<path transform="translate(747,294)" d="m0 0 4 1-5 2v2l-10 7h-2l-1 2v-4l7-4 2-2h3z" fill="#E3F0EF"/>
<path transform="translate(313,289)" d="m0 0h2v3l2 1-6 7h-3v-2l-3-1 6-2z" fill="#E2EEEE"/>
<path transform="translate(668,172)" d="m0 0 2 2-1 4-2-1-1 3-3 1v2h-2l-2 4v-4z" fill="#F9FCF7"/>
<path transform="translate(420,881)" d="m0 0 2 1-2 5 2 1-1 4-5 2-1-5 3-2z" fill="#F9FDF7"/>
<path transform="translate(674,801)" d="m0 0 3 3 2-1 1 7h-4l-3-6z" fill="#F9F8EF"/>
<path transform="translate(283,760)" d="m0 0 3 1v2l-2 1-1 4-4 2v3l-4-1 5-5 1-5h2z" fill="#FAFCF9"/>
<path transform="translate(435,700)" d="m0 0h3l2 10-1 3-2-1-1-5-2-1z" fill="#A0CEDC"/>
<path transform="translate(867,657)" d="m0 0h5l1 5-6 1-2-1v-4z" fill="#F9FDF7"/>
<path transform="translate(792,420)" d="m0 0h8v2l-6 2-1 3-3-2 1-4z" fill="#F9FAF3"/>
<path transform="translate(173,297)" d="m0 0 1 2 6 2-2 7-2-1v-2h-2z" fill="#78AEC4"/>
<path transform="translate(284,276)" d="m0 0 12 12-2 1-6-4v-2h-2l-2-3z" fill="#E9F3F1"/>
<path transform="translate(292,178)" d="m0 0 4 3-2 4-5-1-1-4z" fill="#F9FDF7"/>
<path transform="translate(392,166)" d="m0 0 2 3 3 7v3l-4-2-2-10zm2 13v3z" fill="#dee"/>
<path transform="translate(367,159)" d="m0 0h10l2 1-1 3-13-1v-2z" fill="#F9FDF7"/>
<path transform="translate(443,819)" d="m0 0 9 2 2 3v3l-5-2-8-4z" fill="#E2F0EF"/>
<path transform="translate(205,790)" d="m0 0h5l2 3v7l-4 3 2-4v-5l-6-1z" fill="#FAFCF9"/>
<path transform="translate(750,773)" d="m0 0 6 4 5 5 1 2-3 1-3-2v-3l-4-2-3-4z" fill="#EDF4F1"/>
<path transform="translate(389,742)" d="m0 0 5 2 11 7v2l-5-2-2-1v-2l-5 1-2-4-2-1z" fill="#F9FCF7"/>
<path transform="translate(857,705)" d="m0 0h2l2 7 7 2v1h-6l-5-2-2-2 1-4z" fill="#E7F3F1"/>
<path transform="translate(863,698)" d="m0 0 6 2 1 4-6-1-5 1 1-4z" fill="#E9F3F1"/>
<path transform="translate(732,392)" d="m0 0 3 2 2 8h-7l2-4z" fill="#355E81"/>
<path transform="translate(550,319)" d="m0 0h5l1 1h3v3l-4 2-6-2-1 2 1-5z" fill="#4A83A5"/>
<path transform="translate(619,148)" d="m0 0 7 1v2l-7 3-3 4v-6z" fill="#DAEBEC"/>
<path transform="translate(627,864)" d="m0 0h3v2l4 2 2 2v5l-2-1v-4h-6l-1-5z" fill="#F9FCF8"/>
<path transform="translate(701,828)" d="m0 0 5 2v2l-3 1-3 3-2-1v-5z" fill="#F9FDF7"/>
<path transform="translate(441,770)" d="m0 0 4 1 8 5-2 1-11-3z" fill="#DFECED"/>
<path transform="translate(236,730)" d="m0 0 4 1 1 5-13-2 4-2z" fill="#FAFCF8"/>
<path transform="translate(129,500)" d="m0 0 5 3 6 1 1 4-5 1-3-3v-2l-4-2z" fill="#E2EFEF"/>
<path transform="translate(602,193)" d="m0 0h1l3 9 3 1-3 3v-3l-3 1-3-4z" fill="#E3F1F0"/>
<path transform="translate(487,778)" d="m0 0 6 1h3l3 3v2l-10-2z" fill="#ACD9E3"/>
<path transform="translate(121,508)" d="m0 0 3 1 2 6 3-1v3h-5l-3-6-2-2z" fill="#EBF3F1"/>
<path transform="translate(525,196)" d="m0 0h1v16l-4 2-1-6h3z" fill="#DDE7EB"/>
<path transform="translate(704,193)" d="m0 0 4 2-5 5-5 6-2-2 3-5 4-4z" fill="#E2EDED"/>
<path transform="translate(640,195)" d="m0 0h6l2 4-5 2-4-1z" fill="#F9FCF7"/>
<path transform="translate(686,176)" d="m0 0h8l4 6v2l-3 1-1-6h-6l-4 1z" fill="#D8EAEC"/>
<path transform="translate(628,149)" d="m0 0h3l3 5-1 5h-2l-1 2v-6l-1-3h-2z" fill="#EFF6F2"/>
<path transform="translate(462,822)" d="m0 0 7 1-4 2-4 3h-5l-1-2 6-3z" fill="#DDECED"/>
<path transform="translate(380,799)" d="m0 0h8l3 2v5l-2 1v-6h-9l-1 3-2-1 1-3z" fill="#E2EEEE"/>
<path transform="translate(305,787)" d="m0 0 2 2-5 6-4 7-1-4 3-6 3-3h2z" fill="#F9F3E5"/>
<path transform="translate(515,773)" d="m0 0 4 5-2 5 2 1h-5v-8z" fill="#3C6B8E"/>
<path transform="translate(634,730)" d="m0 0h3l-1 3h-2l1 3-7 4-2-1 5-6z" fill="#6CA8C2"/>
<path transform="translate(866,596)" d="m0 0 7 1v6l-8-3v-3z" fill="#F9FCF7"/>
<path transform="translate(735,536)" d="m0 0 8 1v2l-9 3h-3l1-3 4-1z" fill="#EAF4F2"/>
<path transform="translate(223,500)" d="m0 0h1l-1 18-2-4-1-4z" fill="#EBF3F1"/>
<path transform="translate(856,482)" d="m0 0h1v6l5 2 1 3-4 1-4-5z" fill="#EEF5F2"/>
<path transform="translate(429,465)" d="m0 0 6 1v2l-9 3-1-3 1-2z" fill="#4E8CAA"/>
<path transform="translate(146,372)" d="m0 0 4 1v2l-4 1v4l-4-1-1-5 3-1v2l2-2z" fill="#F9FDF7"/>
<path transform="translate(164,349)" d="m0 0 7 1 1 3-4 2-5-3z" fill="#F9FDF7"/>
<path transform="translate(557,216)" d="m0 0 1 3-3 7-4-1-1-5 6-2z" fill="#E7F0EF"/>
<path transform="translate(265,192)" d="m0 0 4 1-1 2h-3l-2 4-4 1 1-7z" fill="#F7F9F1"/>
<path transform="translate(647,182)" d="m0 0 4 2v2l6-1 1 4-5 1v-2l-6-2-1-2z" fill="#F9FCF8"/>
<path transform="translate(415,145)" d="m0 0 5 5v10l1 3h-2l-2-8-1-7z" fill="#BCD9E1"/>
<path transform="translate(629,870)" d="m0 0h5l1 4-2 2h-4l-1-4z" fill="#FBAC5E"/>
<path transform="translate(497,827)" d="m0 0 2 3v6h-3l-3-4v-2z" fill="#F5FAF5"/>
<path transform="translate(402,821)" d="m0 0 10 5-2 3-6-2z" fill="#DCEDED"/>
<path transform="translate(556,760)" d="m0 0m-1 1m-1 1 1 2 2 1-8 5-2-2 2-3h2l1-2z" fill="#5191AE"/>
<path transform="translate(204,734)" d="m0 0 2 1-1 3-4 2h-3v2l-3-1v-2z" fill="#DBECED"/>
<path transform="translate(767,730)" d="m0 0h6l5 5-1 3h-2v-2l-4-2z" fill="#E3F0EF"/>
<path transform="translate(771,660)" d="m0 0 6 1-1 3h-3v2l-4-1v-4z" fill="#F9FDF7"/>
<path transform="translate(764,491)" d="m0 0h1v5h2v8l-1-3h-3l-1 3v-7h1z" fill="#2F5071"/>
<path transform="translate(156,489)" d="m0 0h4v7l-4 1-2-1z" fill="#F9FDF7"/>
<path transform="translate(874,475)" d="m0 0m-12 0 10 1 1 2-14 1-1-2z" fill="#F9FDF7"/>
<path transform="translate(851,389)" d="m0 0 6 1 6 3-2 2-6-1-2-4z" fill="#F9FCF7"/>
<path transform="translate(544,347)" d="m0 0h14v2l-4 1-5-1-5 1z" fill="#F9FCF7"/>
<path transform="translate(160,336)" d="m0 0 3 4v7l-3 1-1-1z" fill="#F9FDF7"/>
<path transform="translate(579,276)" d="m0 0 6 2 3 4-1 2-6-2-2-3z" fill="#4B85A4"/>
<path transform="translate(499,264)" d="m0 0 3 1v17h-1v-10h-2z" fill="#7FB6CB"/>
<path transform="translate(389,200)" d="m0 0h2l1 7-4 1-2-2 1-4z" fill="#F9FDF7"/>
<path transform="translate(557,857)" d="m0 0 2 4-4 3-4-1 1-3z" fill="#EAF3F1"/>
<path transform="translate(715,839)" d="m0 0 5 3v3h-7l-1-3h2z" fill="#F9FDF7"/>
<path transform="translate(690,833)" d="m0 0 4 3 3 9-1 2-6-10z" fill="#F9FCF7"/>
<path transform="translate(718,730)" d="m0 0 8 1v1l-7 2-2 6-2-4v-3z" fill="#DCEDED"/>
<path transform="translate(870,704)" d="m0 0 3 1 2 3v4l-5 1zm-2 9 2 1z" fill="#E8F3F1"/>
<path transform="translate(717,545)" d="m0 0h4l-1 3-10 1-2 2v-4z" fill="#3D6E92"/>
<path transform="translate(861,413)" d="m0 0h5l-2 1v4h-8v-2z" fill="#F9FDF7"/>
<path transform="translate(263,324)" d="m0 0 5 2-4 2-5 4v-7z" fill="#DBECED"/>
<path transform="translate(734,231)" d="m0 0 4 1 1 3h-3v2l-5 2-1-2h2z" fill="#F7FBF6"/>
<path transform="translate(362,196)" d="m0 0h2l1 7-5 1v-6z" fill="#F7FBF6"/>
<path transform="translate(569,168)" d="m0 0 5 3 3 3-1 2h-6z" fill="#F9FDF7"/>
<path transform="translate(645,161)" d="m0 0 6 2v3l-8 1v-4z" fill="#F2F5EF"/>
<path transform="translate(425,136)" d="m0 0h3l1 3-4 1-2 4-9 1 1-3h6z" fill="#D3E5E8"/>
<path transform="translate(314,769)" d="m0 0h6l-1 4-3 3h-3z" fill="#F9FAF2"/>
<path transform="translate(461,734)" d="m0 0h5v3h-1l-1 3-5-1v-3z" fill="#A4D0DE"/>
<path transform="translate(663,716)" d="m0 0 2 1v4h-2v2l-4 2-2-2 4-5h2z" fill="#508FAD"/>
<path transform="translate(719,508)" d="m0 0 4 1v7h-4z" fill="#A4D3DF"/>
<path transform="translate(907,464)" d="m0 0h3l-1 11-4 2z" fill="#E5F3F1"/>
<path transform="translate(757,358)" d="m0 0 5 5-2 2-5-2v-4z" fill="#F7FBF6"/>
<path transform="translate(610,290)" d="m0 0 8 4 3 3-4 2-4-4-3-2z" fill="#A4D0DE"/>
<path transform="translate(319,280)" d="m0 0 1 2 2 1-1 5h-5v-3l2-1-1-3z" fill="#F9FCF7"/>
<path transform="translate(721,232)" d="m0 0h5v4l-1 2-5-1z" fill="#F9FCF7"/>
<path transform="translate(590,224)" d="m0 0 1 3h2l-1 5-5-1v-4h3z" fill="#F9FCF7"/>
<path transform="translate(667,204)" d="m0 0 1 4-6 9-2-1 3-6h2l1-5z" fill="#D5EAEC"/>
<path transform="translate(657,866)" d="m0 0 3 4 2 5 5 2-6 3-2-2v-3z" fill="#FAFCF9"/>
<path transform="translate(218,793)" d="m0 0h3l1 5-1 2-5-1z" fill="#F9FDF7"/>
<path transform="translate(833,745)" d="m0 0 5 1-3 3h-3l-1 3-3-3z" fill="#F9FDF7"/>
<path transform="translate(743,709)" d="m0 0h4l1 6-3-2h-9v-2z" fill="#E8F4F2"/>
<path transform="translate(262,699)" d="m0 0 2 1-1 4h2v2h-6l-2-3z" fill="#ECF4F2"/>
<path transform="translate(757,478)" d="m0 0 3 4-1 12h-1l-1-6z" fill="#2F5071"/>
<path transform="translate(213,450)" d="m0 0 4 2 1 1v6l-3 1z" fill="#E2F0EF"/>
<path transform="translate(894,374)" d="m0 0 3 1-1 5-1 4-3-3v-6z" fill="#F1F6F3"/>
<path transform="translate(647,302)" d="m0 0 6 4 4 3-1 3-5-3-1-4-3-1z" fill="#3E6E91"/>
<path transform="translate(741,292)" d="m0 0 4 1v5l-6-1-1-3z" fill="#F9FCF7"/>
<path transform="translate(651,224)" d="m0 0 4 2-2 6-2-2-2 1v-6z" fill="#EAF5F3"/>
<path transform="translate(681,209)" d="m0 0 1 4-3 3-3 4-1 3-3-1 7-12z" fill="#DFEFEF"/>
<path transform="translate(478,118)" d="m0 0 5 1-1 4-4 1-1-5z" fill="#88B7CA"/>
<path transform="translate(580,906)" d="m0 0h4l1 5-4 2-2-5z" fill="#F9FDF7"/>
<path transform="translate(672,852)" d="m0 0h2l-1 5-2 5h-2l-2-5 3-1z" fill="#F9FCF7"/>
<path transform="translate(390,817)" d="m0 0 1 4h2l1-2v7l-5-1-1-2h2z" fill="#F9FDF7"/>
<path transform="translate(708,738)" d="m0 0 5 2-2 5-4-2z" fill="#F9FDF7"/>
<path transform="translate(260,713)" d="m0 0 7 2v-2l3 1-3 3h-10z" fill="#F9FCF7"/>
<path transform="translate(723,420)" d="m0 0h9v2l-3 1-2 3v-2h-3z" fill="#ACDAE4"/>
<path transform="translate(112,393)" d="m0 0m-3 1 5 2v4h-6v-5z" fill="#B9D3DA"/>
<path transform="translate(230,326)" d="m0 0 4 2 1 5-3 3-2-1 1-5z" fill="#F9FDF7"/>
<path transform="translate(390,242)" d="m0 0h7l-3 5h-6l2-1-1-3z" fill="#F9FCF7"/>
<path transform="translate(741,226)" d="m0 0h5l3 2v2h-3l-1 2-4-2z" fill="#F9FDF7"/>
<path transform="translate(652,209)" d="m0 0 1 3-1 5-5 1 2-6z" fill="#F9FAF2"/>
<path transform="translate(393,208)" d="m0 0 4 1-2 7-3-2v-5z" fill="#F9FDF7"/>
<path transform="translate(292,189)" d="m0 0h5l1 2h-2l-1 3-7-2v-2z" fill="#F9FDF7"/>
<path transform="translate(404,157)" d="m0 0 3 1 1 4h2v6l-2 1-4-10z" fill="#DDEDEE"/>
<path transform="translate(661,158)" d="m0 0 7 2v3h-3l-2 3-1-3-3-2z" fill="#F9FCF7"/>
<path transform="translate(326,860)" d="m0 0h2v3l2 1h-2v2l-5-1v-3z" fill="#F9FDF7"/>
<path transform="translate(418,810)" d="m0 0 1 2h2l4 5-6-1-4-2v-2z" fill="#E5F1F0"/>
<path transform="translate(323,785)" d="m0 0 3 1-2 4-3 1v5h-2l-1-4z" fill="#F9FCF7"/>
<path transform="translate(775,777)" d="m0 0 6 1 1 5 4 1-2 2-3-2v-2h-2v-2l-4-2z" fill="#E5EFEF"/>
<path transform="translate(740,726)" d="m0 0 5 2 4 4v2l-4-1-3-3v-2h-2z" fill="#E6F2F0"/>
<path transform="translate(415,700)" d="m0 0h13l2 4-1 3-1-3-3-1v-1l-10-1z" fill="#F9FDF7"/>
<path transform="translate(883,605)" d="m0 0h2l1 3 2 2 1 6-5-5-2-4z" fill="#F9FCF8"/>
<path transform="translate(894,576)" d="m0 0 2 4 2 1-1 2h-8l3-3z" fill="#E8F2F1"/>
<path transform="translate(599,536)" d="m0 0 3 1 1 4-1 2-4-1-1-2z" fill="#F9FDF7"/>
<path transform="translate(804,480)" d="m0 0h2v9l-3 2-1-7z" fill="#EAF3F1"/>
<path transform="translate(595,440)" d="m0 0h3v10h-2l-1-2z" fill="#61A0BB"/>
<path transform="translate(123,441)" d="m0 0 5 1-2 6-1-2h-4l1-4z" fill="#F9FDF7"/>
<path transform="translate(717,420)" d="m0 0 5 1 1 4h-4l-1 4z" fill="#70ABC5"/>
<path transform="translate(703,419)" d="m0 0h7l1 4-7 1z" fill="#3C6C90"/>
<path transform="translate(608,296)" d="m0 0 4 2 5 5 3 4h-3l-4-4v-2h-2v-2l-3-1z" fill="#4D89A8"/>
<path transform="translate(428,271)" d="m0 0 3 1-5 4-6 1-2-2z" fill="#D4E4E7"/>
<path transform="translate(711,258)" d="m0 0h2l-2 4-5 5-4 2v-2l7-6z" fill="#F9F9F2"/>
<path transform="translate(751,251)" d="m0 0 2 1-2 4-4 1-1-5z" fill="#F9FCF7"/>
<path transform="translate(576,232)" d="m0 0 6 1 1 3-1 1h-6z" fill="#F9FDF7"/>
<path transform="translate(418,176)" d="m0 0h7l-1 5-5-1z" fill="#F9FDF7"/>
<path transform="translate(332,175)" d="m0 0 5 1 3 3-1 4-2-1 1-2-5-2z" fill="#DEEBEC"/>
<path transform="translate(337,869)" d="m0 0 3 3-2 5h-3l1-7z" fill="#F9FDF7"/>
<path transform="translate(549,862)" d="m0 0 2 1-4 6h-3l1-5z" fill="#E4F1F0"/>
<path transform="translate(672,834)" d="m0 0 3 1 3 7-3 1-1-3-2-1z" fill="#F9FCF7"/>
<path transform="translate(740,817)" d="m0 0 4 2 3 6-3 2-2-6-3-1z" fill="#F9FCF7"/>
<path transform="translate(314,813)" d="m0 0 4 1-2 6h-3l-1-5z" fill="#F9F9F1"/>
<path transform="translate(587,808)" d="m0 0 7 1-2 3-3 1-4 1-1-2z" fill="#FCFCFC"/>
<path transform="translate(488,768)" d="m0 0 5 1 2 2v3l-2 2-5-7z" fill="#518FAD"/>
<path transform="translate(565,753)" d="m0 0h4l-2 4-3 3-3-1 2-4h2z" fill="#467C9E"/>
<path transform="translate(742,745)" d="m0 0 5 2 3 3v2l2 1v2h-2l-5-6-3-2z" fill="#E8F3F1"/>
<path transform="translate(651,714)" d="m0 0 3 1zm-1 1 1 4-6 4h-3l5-6z" fill="#72ADC6"/>
<path transform="translate(727,542)" d="m0 0 4 1-3 1-1 2-3 1-1 2h-3l1-5z" fill="#4B80A0"/>
<path transform="translate(143,499)" d="m0 0h1v6l-8-3 1-2z" fill="#F9FDF7"/>
<path transform="translate(168,298)" d="m0 0 2 4 1 5h-3-2v-7h2z" fill="#F9FDF7"/>
<path transform="translate(622,235)" d="m0 0 2 2 2 6-3 1-3-3 1-4z" fill="#F9FCF7"/>
<path transform="translate(476,179)" d="m0 0 2 4 1 1v7l-2 1-1-2z" fill="#F9FCF7"/>
<path transform="translate(615,158)" d="m0 0 1 3-4 10-2-4 4-8z" fill="#D8EDEE"/>
<path transform="translate(479,842)" d="m0 0h1v10l-1 7h-1l-1-11h2z" fill="#D7E7E9"/>
<path transform="translate(685,743)" d="m0 0 6 1 2 3-5 1-4-4z" fill="#F2F8F4"/>
<path transform="translate(579,742)" d="m0 0 3 1-3 1-2 4-2 1v-3l-2-1 2-2z" fill="#39678A"/>
<path transform="translate(744,740)" d="m0 0 3 1 1 5-6-1 1-4z" fill="#F9FCF7"/>
<path transform="translate(186,739)" d="m0 0 9 1-1 3-4 1-4-3z" fill="#E7F2F0"/>
<path transform="translate(800,683)" d="m0 0 5 1 3 5-5-1-5-4z" fill="#E1EFEF"/>
<path transform="translate(593,673)" d="m0 0h6l-3 5h-3v2l-2-1z" fill="#457B9C"/>
<path transform="translate(356,604)" d="m0 0h8v6l-3-1-1-2-4-1z" fill="#315679"/>
<path transform="translate(856,423)" d="m0 0h7v2l-2 1h-9l1-2z" fill="#FAFCF9"/>
<path transform="translate(247,372)" d="m0 0 1 4v2h-2l-2 4h-4l5-6z" fill="#F9FCF8"/>
<path transform="translate(246,348)" d="m0 0 2 4h5l1 2-1 2-4-1-3-3z" fill="#E4EFEF"/>
<path transform="translate(608,295)" d="m0 0 5 1 6 5-2 3-1-3-4-2z" fill="#6FAAC4"/>
<path transform="translate(496,257)" d="m0 0h6l-1 5-5-1zm0 5 2 1-2 1z" fill="#9ACADA"/>
<path transform="translate(629,217)" d="m0 0 3 1-3 7h-3v-3h2l-1-3z" fill="#F9F6EB"/>
<path transform="translate(480,200)" d="m0 0h1l1 15-3-1-1-5 1-1z" fill="#C8E1E7"/>
<path transform="translate(563,163)" d="m0 0 1 2 4 2-13-1 1-2z" fill="#F9FDF7"/>
<path transform="translate(479,115)" d="m0 0 4 1 1 1v5l-2-3h-4l-2 3 1-6z" fill="#F9FDF7"/>
</svg>
